<?xml version="1.0" encoding="UTF-8"?>
<svg width="104px" height="38px" viewBox="0 0 104 38" version="1.1" xmlns="http://www.w3.org/2000/svg" xmlns:xlink="http://www.w3.org/1999/xlink">
    <title>3,000</title>
    <g id="Priority-card---swa-blue,-centered-icons" stroke="none" stroke-width="1" fill="none" fill-rule="evenodd">
        <g id="Desktop-HD" transform="translate(-349.000000, -1101.000000)" fill="#304CB2" fill-rule="nonzero">
            <g id="Points" transform="translate(197.000000, 949.000000)">
                <path d="M161.064,182.932 C167.84,182.932 171.888,179.104 171.888,174.088 C171.888,170.788 169.864,167.884 165.992,167.224 C169.776,166.212 171.316,162.78 171.316,160.184 C171.316,155.74 167.928,152 160.756,152 C157.896,152 154.552,152.66 152.088,153.804 L153.408,159.172 C155.52,158.204 157.72,157.544 160.14,157.544 C163.22,157.544 164.98,158.996 164.98,160.976 C164.98,163.66 162.648,164.716 158.644,164.716 L156.268,164.716 L156.268,169.952 L159.304,169.952 C163.792,169.952 165.552,171.272 165.552,173.516 C165.552,175.76 164.012,177.388 160.272,177.388 C157.676,177.388 155.476,176.772 153.32,175.672 L152,181.084 C154.508,182.272 157.808,182.932 161.064,182.932 Z M179.908,189.004 C181.316,186.716 182.724,183.02 182.724,179.896 C182.724,176.772 181.052,175.188 178.852,175.188 C176.652,175.188 175.068,176.86 175.068,178.972 C175.068,180.776 176.168,182.096 177.576,182.58 C177.576,184.208 177.136,186.672 176.52,189.004 L179.908,189.004 Z M195.76,182.932 C202.008,182.932 206.936,177.96 206.936,167.532 C206.936,157.016 202.008,152 195.76,152 C189.512,152 184.584,157.016 184.584,167.532 C184.584,177.96 189.512,182.932 195.76,182.932 Z M195.804,177.388 C193.252,177.388 191.184,174.88 191.184,167.576 C191.184,160.096 193.252,157.544 195.804,157.544 C198.356,157.544 200.38,160.096 200.38,167.532 C200.38,174.88 198.356,177.388 195.804,177.388 Z M219.872,182.932 C226.12,182.932 231.048,177.96 231.048,167.532 C231.048,157.016 226.12,152 219.872,152 C213.624,152 208.696,157.016 208.696,167.532 C208.696,177.96 213.624,182.932 219.872,182.932 Z M219.916,177.388 C217.364,177.388 215.296,174.88 215.296,167.576 C215.296,160.096 217.364,157.544 219.916,157.544 C222.468,157.544 224.492,160.096 224.492,167.532 C224.492,174.88 222.468,177.388 219.916,177.388 Z M243.984,182.932 C250.232,182.932 255.16,177.96 255.16,167.532 C255.16,157.016 250.232,152 243.984,152 C237.736,152 232.808,157.016 232.808,167.532 C232.808,177.96 237.736,182.932 243.984,182.932 Z M244.028,177.388 C241.476,177.388 239.408,174.88 239.408,167.576 C239.408,160.096 241.476,157.544 244.028,157.544 C246.58,157.544 248.604,160.096 248.604,167.532 C248.604,174.88 246.58,177.388 244.028,177.388 Z" id="3,000"></path>
            </g>
        </g>
    </g>
</svg>