<?xml version="1.0" encoding="UTF-8"?>
<svg width="48px" height="30px" viewBox="0 0 48 30" version="1.1" xmlns="http://www.w3.org/2000/svg" xmlns:xlink="http://www.w3.org/1999/xlink">
    <title>icon/3X_silver</title>
    <defs>
        <path d="M8.64479,29.526 C15.1074,29.526 18.96818,25.872 18.96818,21.084 C18.96818,17.934 17.03779,15.162 13.34487,14.532 C16.95386,13.566 18.422635,10.29 18.422635,7.812 C18.422635,3.57 15.19133,0 8.351035,0 C5.62331,0 2.43397,0.63 0.08393,1.722 L1.34288,6.846 C3.3572,5.922 5.45545,5.292 7.763525,5.292 C10.701075,5.292 12.379675,6.678 12.379675,8.568 C12.379675,11.13 10.15553,12.138 6.336715,12.138 L4.070605,12.138 L4.070605,17.136 L6.96619,17.136 C11.24662,17.136 12.92522,18.396 12.92522,20.538 C12.92522,22.68 11.456445,24.234 7.88942,24.234 C5.413485,24.234 3.315235,23.646 1.25895,22.596 L0,27.762 C2.392005,28.896 5.53938,29.526 8.64479,29.526 Z M27.78083,28.98 L33.194315,20.454 C33.40414,20.118 33.572,19.866 33.73986,19.404 L39.740855,28.98 L46.58115,28.98 L37.34885,14.742 L46.623115,0.546 L39.78282,0.546 L34.74702,8.736 C34.537195,9.072 34.369335,9.366 34.15951,9.912 L28.03262,0.546 L21.192325,0.546 L30.424625,14.574 L20.940535,28.98 L27.78083,28.98 Z" id="path-1"></path>
    </defs>
    <g id="Biz-cards-LP" stroke="none" stroke-width="1" fill="none" fill-rule="evenodd">
        <g id="Desktop-Biz-Open-" transform="translate(-567.000000, -2228.000000)">
            <g id="Points" transform="translate(20.500000, 2110.000000)">
                <g id="Group" transform="translate(545.000000, 118.000000)">
                    <g id="colors/SWA_blue" transform="translate(1.998333, 0.000000)">
                        <mask id="mask-2" fill="white">
                            <use xlink:href="#path-1"></use>
                        </mask>
                        <use id="3X" fill="#000000" fill-rule="nonzero" xlink:href="#path-1"></use>
                        <g id="Group" mask="url(#mask-2)">
                            <g transform="translate(-1.998333, -1.000000)" id="colors/SWA_blue">
                                <rect id="Rectangle-4" fill="#5E7E95" fill-rule="nonzero" x="0" y="0" width="49.9583333" height="50"></rect>
                            </g>
                        </g>
                    </g>
                </g>
            </g>
        </g>
    </g>
</svg>