<?xml version="1.0" encoding="UTF-8"?>
<svg width="101px" height="36px" viewBox="0 0 101 36" version="1.1" xmlns="http://www.w3.org/2000/svg" xmlns:xlink="http://www.w3.org/1999/xlink">
    <title>icon/6k_icongray</title>
    <g id="Biz-cards-LP" stroke="none" stroke-width="1" fill="none" fill-rule="evenodd">
        <g id="Desktop-Biz-Open-" transform="translate(-274.000000, -2477.000000)" fill="#5E7E95" fill-rule="nonzero">
            <g id="Points" transform="translate(20.500000, 2360.000000)">
                <g id="6,000" transform="translate(253.500000, 117.020000)">
                    <path d="M10.878,29.526 C16.38,29.526 20.328,25.788 20.328,20.16 C20.328,14.364 16.506,11.256 11.886,11.256 C9.786,11.256 7.728,11.886 6.216,12.978 C6.72,7.266 10.206,5.25 13.65,5.25 C15.078,5.25 16.59,5.544 18.06,6.342 L19.236,1.26 C17.682,0.378 15.414,0 13.566,0 C6.132,0 0,4.872 0,15.834 C0,24.906 4.41,29.526 10.878,29.526 Z M10.794,24.444 C8.148,24.444 6.384,22.47 6.216,17.766 C7.392,16.758 9.03,16.212 10.542,16.212 C12.768,16.212 14.532,17.598 14.532,20.328 C14.532,22.806 12.936,24.444 10.794,24.444 Z M27.804,35.322 C29.148,33.138 30.492,29.61 30.492,26.628 C30.492,23.646 28.896,22.134 26.796,22.134 C24.696,22.134 23.184,23.73 23.184,25.746 C23.184,27.468 24.234,28.728 25.578,29.19 C25.578,30.744 25.158,33.096 24.57,35.322 L27.804,35.322 Z M43.89,29.526 C49.854,29.526 54.558,24.78 54.558,14.826 C54.558,4.788 49.854,0 43.89,0 C37.926,0 33.222,4.788 33.222,14.826 C33.222,24.78 37.926,29.526 43.89,29.526 Z M43.932,24.234 C41.496,24.234 39.522,21.84 39.522,14.868 C39.522,7.728 41.496,5.292 43.932,5.292 C46.368,5.292 48.3,7.728 48.3,14.826 C48.3,21.84 46.368,24.234 43.932,24.234 Z M66.906,29.526 C72.87,29.526 77.574,24.78 77.574,14.826 C77.574,4.788 72.87,0 66.906,0 C60.942,0 56.238,4.788 56.238,14.826 C56.238,24.78 60.942,29.526 66.906,29.526 Z M66.948,24.234 C64.512,24.234 62.538,21.84 62.538,14.868 C62.538,7.728 64.512,5.292 66.948,5.292 C69.384,5.292 71.316,7.728 71.316,14.826 C71.316,21.84 69.384,24.234 66.948,24.234 Z M89.922,29.526 C95.886,29.526 100.59,24.78 100.59,14.826 C100.59,4.788 95.886,0 89.922,0 C83.958,0 79.254,4.788 79.254,14.826 C79.254,24.78 83.958,29.526 89.922,29.526 Z M89.964,24.234 C87.528,24.234 85.554,21.84 85.554,14.868 C85.554,7.728 87.528,5.292 89.964,5.292 C92.4,5.292 94.332,7.728 94.332,14.826 C94.332,21.84 92.4,24.234 89.964,24.234 Z"></path>
                </g>
            </g>
        </g>
    </g>
</svg>