<?xml version="1.0" encoding="UTF-8"?>
<svg width="32px" height="32px" viewBox="0 0 32 32" version="1.1" xmlns="http://www.w3.org/2000/svg" xmlns:xlink="http://www.w3.org/1999/xlink">
    <title>icon/alist_silver</title>
    <defs>
        <path d="M24.9,0 C33.682,0 40.8,6.97564 40.8,15.58004 C40.8,19.64312 39.213,23.34458 36.609,26.12092 C33.704,29.21968 29.535,31.16008 24.9,31.16008 C16.122,31.16008 9,24.18542 9,15.58004 C9,11.0397 10.984,6.95506 14.148,4.10522 C16.982,1.55918 20.756,0 24.9,0 Z M24.9,3.46038 C21.732,3.46038 18.844,4.6354 16.654,6.56208 C14.126,8.78276 12.535,12.00304 12.535,15.58004 C12.535,22.26364 18.082,27.6997 24.9,27.6997 C28.552,27.6997 31.836,26.13758 34.103,23.66406 C36.07,21.51982 37.269,18.68468 37.269,15.58004 C37.269,8.89938 31.717,3.46038 24.9,3.46038 Z M25.2856,8.553538 L26.7656,12.034498 C26.9766,12.532338 27.5986,12.974318 28.1466,13.018418 L31.9816,13.321238 C32.5296,13.365338 32.6376,13.687758 32.2196,14.039578 L29.2996,16.494478 C28.8826,16.845318 28.6446,17.560718 28.7716,18.085998 L29.6616,21.754138 C29.7886,22.278438 29.5086,22.477378 29.0386,22.197098 L25.7546,20.234158 C25.2846,19.953878 24.5156,19.953878 24.0466,20.234158 L20.7616,22.197098 C20.2916,22.477378 20.0116,22.278438 20.1396,21.754138 L21.0286,18.085998 C21.1556,17.560718 20.9186,16.845318 20.5006,16.494478 L17.5806,14.039578 C17.1636,13.687758 17.2706,13.365338 17.8186,13.321238 L21.6536,13.018418 C22.2016,12.974318 22.8236,12.532338 23.0356,12.034498 L24.5156,8.553538 C24.7266,8.055698 25.0736,8.055698 25.2856,8.553538 Z" id="path-1"></path>
    </defs>
    <g id="Biz-cards-LP" stroke="none" stroke-width="1" fill="none" fill-rule="evenodd">
        <g id="Desktop-Biz-Open-" transform="translate(-1095.000000, -2490.000000)">
            <g id="travel-benefits" transform="translate(222.000000, 2403.000000)">
                <g id="Group-5" transform="translate(780.000000, 59.000000)">
                    <g id="icon/nofx" transform="translate(84.000000, 28.000000)">
                        <mask id="mask-2" fill="white">
                            <use xlink:href="#path-1"></use>
                        </mask>
                        <use id="icon/alist" fill="#304CB2" xlink:href="#path-1"></use>
                        <g id="Group" mask="url(#mask-2)" fill="#5E7E95" fill-rule="nonzero">
                            <g id="colors/SWA_blue">
                                <rect id="Rectangle-4" x="0" y="0" width="50" height="49"></rect>
                            </g>
                        </g>
                    </g>
                </g>
            </g>
        </g>
    </g>
</svg>