<?xml version="1.0" encoding="UTF-8"?>
<svg width="43px" height="29px" viewBox="0 0 43 29" version="1.1" xmlns="http://www.w3.org/2000/svg" xmlns:xlink="http://www.w3.org/1999/xlink">
    <title>icon/car copy</title>
    <defs>
        <path d="M46.1366,10.9077 L46.1366,25.5947 C46.1366,27.2217 44.8176,28.5377 43.1926,28.5377 L43.1926,28.5377 L6.9436,28.5377 C5.3176,28.5377 3.9996,27.2217 3.9996,25.5947 L3.9996,25.5947 L3.9996,10.9077 L46.1366,10.9077 Z M13.6746,19.2017 L8.6386,19.2017 C7.9346,19.2017 7.3636,19.7717 7.3636,20.4757 C7.3636,21.1837 7.9346,21.7547 8.6386,21.7547 L8.6386,21.7547 L13.6746,21.7547 C14.3816,21.7547 14.9526,21.1837 14.9526,20.4757 C14.9526,19.7717 14.3816,19.2017 13.6746,19.2017 L13.6746,19.2017 Z M20.3006,14.0957 L8.6386,14.0957 C7.9346,14.0957 7.3636,14.6657 7.3636,15.3737 C7.3636,16.0777 7.9346,16.6507 8.6386,16.6507 L8.6386,16.6507 L20.3006,16.6507 C21.0066,16.6507 21.5766,16.0777 21.5766,15.3737 C21.5766,14.6657 21.0066,14.0957 20.3006,14.0957 L20.3006,14.0957 Z M41.5596,14.0957 L36.5186,14.0957 C35.8146,14.0957 35.2446,14.6657 35.2446,15.3737 C35.2446,16.0777 35.8146,16.6507 36.5186,16.6507 L36.5186,16.6507 L41.5596,16.6507 C42.2616,16.6507 42.8356,16.0777 42.8356,15.3737 C42.8356,14.6657 42.2616,14.0957 41.5596,14.0957 L41.5596,14.0957 Z M43.1924,0 C44.8174,0 46.1364,1.318 46.1364,2.944 L46.1364,2.944 L46.1364,5.595 L4.0004,5.595 L4.0004,2.944 C4.0004,1.318 5.3174,0 6.9434,0 L6.9434,0 Z" id="path-1"></path>
    </defs>
    <g id="Priority-card---swa-blue,-centered-icons" stroke="none" stroke-width="1" fill="none" fill-rule="evenodd">
        <g id="HOME---DESKTOP-Copy" transform="translate(-1139.000000, -1559.000000)">
            <g id="TRAVEL-EXCLUSIVE" transform="translate(150.000000, 1429.000000)">
                <g id="Group" transform="translate(985.000000, 130.000000)">
                    <mask id="mask-2" fill="white">
                        <use xlink:href="#path-1"></use>
                    </mask>
                    <use id="Combined-Shape" fill="#304CB2" xlink:href="#path-1"></use>
                </g>
            </g>
        </g>
    </g>
</svg>