<?xml version="1.0" encoding="UTF-8"?>
<svg width="35px" height="35px" viewBox="0 0 35 35" version="1.1" xmlns="http://www.w3.org/2000/svg" xmlns:xlink="http://www.w3.org/1999/xlink">
    <title>icon/change</title>
    <g id="Priority-card---swa-blue,-centered-icons" stroke="none" stroke-width="1" fill="none" fill-rule="evenodd">
        <g id="Desktop-HD" transform="translate(-1006.000000, -1205.000000)">
            <g id="flying-benefits" transform="translate(0.000000, 1110.000000)">
                <g id="icon/clock" transform="translate(998.000000, 95.000000)">
                    <g id="Combined-Shape" transform="translate(-0.000119, 0.000000)" fill="#304CB2">
                        <path d="M25.4995084,-7.10542736e-15 C35.1635628,-7.10542736e-15 43,7.83447094 43,17.4985253 C43,27.1635628 35.1635628,34.9970506 25.4995084,34.9970506 C15.8384034,34.9970506 8,27.1635628 8,17.4985253 C8,7.83447094 15.8384034,-7.10542736e-15 25.4995084,-7.10542736e-15 Z M25.4995084,3.88725036 C17.9924159,3.88725036 11.8901997,9.99438218 11.8901997,17.4985253 C11.8901997,25.0056178 17.9924159,31.1107834 25.4995084,31.1107834 C33.0036516,31.1107834 39.1127496,25.0056178 39.1127496,17.4985253 C39.1127496,9.99438218 33.0036516,3.88725036 25.4995084,3.88725036 Z M27.8185887,7.01256791 L27.8185887,15.6463407 L33.5154516,20.3398616 L30.8421534,23.4740862 L23.6385407,17.4743127 L23.6385407,7.01256791 L27.8185887,7.01256791 Z"></path>
                    </g>
                    <g id="Group-6" transform="translate(7.000000, 1.000000)"></g>
                </g>
            </g>
        </g>
    </g>
</svg>