<?xml version="1.0" encoding="UTF-8"?>
<svg width="51px" height="34px" viewBox="0 0 51 34" version="1.1" xmlns="http://www.w3.org/2000/svg" xmlns:xlink="http://www.w3.org/1999/xlink">
    <title>icon/earlybird_silver</title>
    <defs>
        <path d="M50.3856959,33.7771724 L50.3856959,37.958932 L0.386,37.958932 L0.386,33.7771724 L50.3856959,33.7771724 Z M25.3604088,16.0252685 C32.8614273,16.0252685 38.9485936,22.1104078 38.9485936,29.6114264 L38.9485936,29.6114264 L11.776278,29.6114264 C11.776278,22.1104078 17.8573632,16.0252685 25.3604088,16.0252685 Z M8.2097215,24.9747003 C7.81039691,26.452404 7.59654541,28.0091618 7.59654541,29.6115277 L7.59654541,29.6115277 L2.70633941,29.6115277 C1.42424394,29.6115277 0.386405406,28.5736892 0.386405406,27.2946343 C0.386405406,26.0115253 1.42424394,24.9747003 2.70633941,24.9747003 L2.70633941,24.9747003 Z M48.0630255,24.9747003 C49.3430939,24.9747003 50.386,26.0155793 50.386,27.2946343 C50.386,28.5767297 49.3430939,29.6115277 48.0630255,29.6115277 L48.0630255,29.6115277 L43.1201167,29.6115277 C43.1201167,28.0091618 42.9062652,26.452404 42.5109947,24.9747003 L42.5109947,24.9747003 Z M39.4691345,11.5819209 C40.3742027,10.6748257 41.8468388,10.6748257 42.7448124,11.5819209 C43.6529211,12.4859756 43.6529211,13.9525306 42.7448124,14.8575988 L42.7448124,14.8575988 L39.1650803,18.4383445 C38.185012,17.2353031 37.0539302,16.1630051 35.8052807,15.2447613 L35.8052807,15.2447613 Z M8.00478893,11.582225 C8.90377603,10.6751298 10.368304,10.6751298 11.2804668,11.582225 L11.2804668,11.582225 L14.931145,15.2308761 C13.6754009,16.14912 12.5453325,17.221418 11.5622238,18.4254729 L11.5622238,18.4254729 L8.00478893,14.8568894 C7.09668021,13.9528347 7.09668021,12.4842526 8.00478893,11.582225 Z M25.3604088,4.5907 C26.6425042,4.5907 27.6762887,5.62853854 27.6762887,6.90962049 L27.6762887,6.90962049 L27.6762887,11.9994888 C26.9202071,11.9032049 26.1418282,11.8505022 25.3604088,11.8505022 C24.5779758,11.8505022 23.7985834,11.9032049 23.0425018,11.9994888 L23.0425018,11.9994888 L23.0425018,6.90962049 C23.0425018,5.62853854 24.0762863,4.5907 25.3604088,4.5907 Z" id="path-1"></path>
    </defs>
    <g id="Biz-cards-LP" stroke="none" stroke-width="1" fill="none" fill-rule="evenodd">
        <g id="Desktop-Biz-Open-" transform="translate(-566.000000, -2493.000000)">
            <g id="travel-benefits" transform="translate(222.000000, 2403.000000)">
                <g id="Group-4" transform="translate(260.000000, 59.000000)">
                    <g id="icon/2X-Copy-2" transform="translate(84.000000, 27.000000)">
                        <mask id="mask-2" fill="white">
                            <use xlink:href="#path-1"></use>
                        </mask>
                        <use id="Combined-Shape" fill="#FFFFFF" xlink:href="#path-1"></use>
                        <g id="Group" mask="url(#mask-2)" fill="#5E7E95" fill-rule="nonzero">
                            <g id="colors/SWA_blue">
                                <rect id="Rectangle-4" x="0" y="0" width="50" height="40"></rect>
                            </g>
                        </g>
                    </g>
                </g>
            </g>
        </g>
    </g>
</svg>