<?xml version="1.0" encoding="UTF-8"?>
<svg width="388px" height="140px" viewBox="0 0 388 140" version="1.1" xmlns="http://www.w3.org/2000/svg" xmlns:xlink="http://www.w3.org/1999/xlink">
    <title>Earn 50,000 bonus po</title>
    <g id="Priority-card---swa-blue,-centered-icons" stroke="none" stroke-width="1" fill="none" fill-rule="evenodd">
        <g id="USE-FOR-SVG" transform="translate(-526, -416)" fill="#FFFFFF" fill-rule="nonzero">
            <g id="masthead/desktop" transform="translate(265, 254.4455)">
                <g id="Earn-50,000-bonus-po" transform="translate(261, 162)">
                    <polygon id="Path" points="15.1388571 50.5545455 43.3628571 50.5545455 43.3628571 41.6265455 25.2908571 41.6265455 25.2908571 30.4665455 40.8428571 30.4665455 40.8428571 21.5385455 25.2908571 21.5385455 25.2908571 10.7385455 43.3628571 10.7385455 43.3628571 1.81054545 15.1388571 1.81054545"></polygon>
                    <path d="M64.6474286,14.1945455 C60.5434286,14.1945455 56.2954286,14.8425455 52.6234286,15.9945455 L53.9914286,24.4185455 C57.1594286,23.2665455 60.3994286,22.6905455 63.6394286,22.6905455 C68.0314286,22.6905455 69.8314286,24.6345455 69.9754286,28.1625455 C56.5834286,28.8105455 49.8874286,33.2745455 49.8874286,40.6905455 C49.8874286,47.6745455 54.9994286,51.4905455 64.5754286,51.4905455 C68.6794286,51.4905455 73.1434286,50.6265455 79.5514286,48.6825455 L79.5514286,28.6665455 C79.5514286,18.8745455 74.7274286,14.1945455 64.6474286,14.1945455 Z M64.5034286,43.8585455 C60.8314286,43.8585455 59.4634286,42.3465455 59.4634286,40.3305455 C59.4634286,37.4505455 62.2714286,35.6505455 69.9754286,35.2905455 L69.9754286,42.8505455 C68.1754286,43.4985455 66.0154286,43.8585455 64.5034286,43.8585455 Z" id="Shape"></path>
                    <path d="M103.244,14.3385455 C99.788,14.3385455 96.476,15.3465455 93.812,17.1465455 C93.38,16.0665455 93.02,15.4905455 92.516,15.1305455 L86.252,15.1305455 L86.252,50.5545455 L95.828,50.5545455 L95.828,25.2825455 C97.916,24.0585455 100.436,23.4825455 102.884,23.4825455 C104.036,23.4825455 105.62,23.6265455 106.916,24.0585455 L108.068,14.9865455 C106.556,14.4825455 104.9,14.3385455 103.244,14.3385455 Z" id="Path"></path>
                    <path d="M130.672571,14.1945455 C126.856571,14.1945455 123.112571,15.0585455 119.728571,16.7865455 C119.440571,16.0665455 119.080571,15.4905455 118.576571,15.1305455 L112.168571,15.1305455 L112.168571,50.5545455 L121.744571,50.5545455 L121.744571,24.9945455 C123.904571,23.6985455 126.496571,22.9785455 128.800571,22.9785455 C132.832571,22.9785455 134.920571,24.8505455 134.920571,30.3945455 L134.920571,50.5545455 L144.568571,50.5545455 L144.568571,28.0905455 C144.568571,19.3065455 139.816571,14.1945455 130.672571,14.1945455 Z" id="Path"></path>
                    <path d="M178.329714,20.3865455 L178.329714,10.7385455 L195.825714,10.7385455 L195.825714,1.81054545 L168.177714,1.81054545 L168.177714,29.2425455 L177.321714,29.2425455 C185.097714,29.2425455 187.761714,31.6185455 187.761714,35.7945455 C187.761714,39.8265455 185.241714,42.4185455 179.121714,42.4185455 C174.873714,42.4185455 171.273714,41.4105455 167.745714,39.6105455 L165.585714,48.4665455 C169.689714,50.4105455 174.873714,51.4905455 180.129714,51.4905455 C191.505714,51.4905455 198.201714,45.2985455 198.201714,35.4345455 C198.201714,26.3625455 192.297714,20.3865455 180.201714,20.3865455 L178.329714,20.3865455 Z" id="Path"></path>
                    <path d="M238.374286,26.2905455 C238.374286,9.08254545 230.310286,0.874545455 220.086286,0.874545455 C209.862286,0.874545455 201.798286,9.08254545 201.798286,26.2905455 C201.798286,43.3545455 209.862286,51.4905455 220.086286,51.4905455 C230.310286,51.4905455 238.374286,43.3545455 238.374286,26.2905455 Z M227.646286,26.2905455 C227.646286,38.3145455 224.334286,42.4185455 220.158286,42.4185455 C215.982286,42.4185455 212.598286,38.3145455 212.598286,26.3625455 C212.598286,14.1225455 215.982286,9.94654545 220.158286,9.94654545 C224.334286,9.94654545 227.646286,14.1225455 227.646286,26.2905455 Z" id="Shape"></path>
                    <path d="M245.786857,50.9145455 C245.786857,53.5785455 245.066857,57.6105455 244.058857,61.4265455 L249.602857,61.4265455 C251.906857,57.6825455 254.210857,51.6345455 254.210857,46.5225455 C254.210857,41.4105455 251.474857,38.8185455 247.874857,38.8185455 C244.274857,38.8185455 241.682857,41.5545455 241.682857,45.0105455 C241.682857,47.9625455 243.482857,50.1225455 245.786857,50.9145455 Z" id="Path"></path>
                    <path d="M294.095429,26.2905455 C294.095429,9.08254545 286.031429,0.874545455 275.807429,0.874545455 C265.583429,0.874545455 257.519429,9.08254545 257.519429,26.2905455 C257.519429,43.3545455 265.583429,51.4905455 275.807429,51.4905455 C286.031429,51.4905455 294.095429,43.3545455 294.095429,26.2905455 Z M283.367429,26.2905455 C283.367429,38.3145455 280.055429,42.4185455 275.879429,42.4185455 C271.703429,42.4185455 268.319429,38.3145455 268.319429,26.3625455 C268.319429,14.1225455 271.703429,9.94654545 275.879429,9.94654545 C280.055429,9.94654545 283.367429,14.1225455 283.367429,26.2905455 Z" id="Shape"></path>
                    <path d="M334.18,26.2905455 C334.18,9.08254545 326.116,0.874545455 315.892,0.874545455 C305.668,0.874545455 297.604,9.08254545 297.604,26.2905455 C297.604,43.3545455 305.668,51.4905455 315.892,51.4905455 C326.116,51.4905455 334.18,43.3545455 334.18,26.2905455 Z M323.452,26.2905455 C323.452,38.3145455 320.14,42.4185455 315.964,42.4185455 C311.788,42.4185455 308.404,38.3145455 308.404,26.3625455 C308.404,14.1225455 311.788,9.94654545 315.964,9.94654545 C320.14,9.94654545 323.452,14.1225455 323.452,26.2905455 Z" id="Shape"></path>
                    <path d="M374.264571,26.2905455 C374.264571,9.08254545 366.200571,0.874545455 355.976571,0.874545455 C345.752571,0.874545455 337.688571,9.08254545 337.688571,26.2905455 C337.688571,43.3545455 345.752571,51.4905455 355.976571,51.4905455 C366.200571,51.4905455 374.264571,43.3545455 374.264571,26.2905455 Z M363.536571,26.2905455 C363.536571,38.3145455 360.224571,42.4185455 356.048571,42.4185455 C351.872571,42.4185455 348.488571,38.3145455 348.488571,26.3625455 C348.488571,14.1225455 351.872571,9.94654545 356.048571,9.94654545 C360.224571,9.94654545 363.536571,14.1225455 363.536571,26.2905455 Z" id="Shape"></path>
                    <path d="M9.61657143,68.7945455 L0.0405714286,68.7945455 L0.0405714286,118.474545 C4.50457143,119.698545 9.54457143,120.490545 13.5045714,120.490545 C26.5365714,120.490545 34.1685714,113.866545 34.1685714,101.410545 C34.0965714,90.6825455 27.4005714,83.1945455 16.9605714,83.1945455 C14.3685714,83.1945455 12.2085714,83.5545455 9.61657143,84.6345455 L9.61657143,68.7945455 Z M15.5205714,91.9065455 C21.2085714,91.9065455 24.4485714,95.7225455 24.4485714,101.698545 C24.4485714,108.250545 21.1365714,111.778545 14.5125714,111.778545 C13.2885714,111.778545 11.3445714,111.562545 9.68857143,111.058545 L9.68857143,93.4185455 C11.6325714,92.3385455 13.4325714,91.9065455 15.5205714,91.9065455 Z" id="Shape"></path>
                    <path d="M74.9091429,101.842545 C74.9091429,90.7545455 67.7811429,83.1945455 56.4771429,83.1945455 C45.2451429,83.1945455 38.0451429,90.7545455 38.0451429,101.842545 C38.0451429,112.930545 45.2451429,120.490545 56.4771429,120.490545 C67.7811429,120.490545 74.9091429,112.930545 74.9091429,101.842545 Z M65.2611429,101.842545 C65.2611429,108.466545 61.3731429,111.778545 56.5491429,111.778545 C51.7251429,111.778545 47.8371429,108.466545 47.8371429,101.842545 C47.8371429,95.2185455 51.7251429,91.9065455 56.5491429,91.9065455 C61.3731429,91.9065455 65.2611429,95.2185455 65.2611429,101.842545 Z" id="Shape"></path>
                    <path d="M97.8817143,83.1945455 C94.0657143,83.1945455 90.3217143,84.0585455 86.9377143,85.7865455 C86.6497143,85.0665455 86.2897143,84.4905455 85.7857143,84.1305455 L79.3777143,84.1305455 L79.3777143,119.554545 L88.9537143,119.554545 L88.9537143,93.9945455 C91.1137143,92.6985455 93.7057143,91.9785455 96.0097143,91.9785455 C100.041714,91.9785455 102.129714,93.8505455 102.129714,99.3945455 L102.129714,119.554545 L111.777714,119.554545 L111.777714,97.0905455 C111.777714,88.3065455 107.025714,83.1945455 97.8817143,83.1945455 Z" id="Path"></path>
                    <path d="M151.590286,84.1305455 L141.942286,84.1305455 L141.942286,111.058545 C140.358286,111.490545 138.558286,111.778545 137.118286,111.778545 C131.286286,111.778545 128.766286,109.618545 128.766286,103.642545 L128.766286,84.1305455 L119.190286,84.1305455 L119.190286,105.226545 C119.190286,114.874545 124.014286,120.490545 137.334286,120.490545 C142.014286,120.490545 146.550286,119.626545 151.590286,118.330545 L151.590286,84.1305455 Z" id="Path"></path>
                    <path d="M183.338857,108.970545 C183.338857,103.138545 180.098857,100.114545 173.690857,98.3145455 C168.290857,96.8745455 166.850857,95.9385455 166.850857,94.2105455 C166.850857,92.4105455 168.650857,91.3305455 172.826857,91.3305455 C175.490857,91.3305455 177.938857,91.8345455 179.954857,92.5545455 L181.394857,84.6345455 C179.162857,83.7705455 176.210857,83.1945455 172.250857,83.1945455 C162.818857,83.1945455 157.490857,87.5145455 157.490857,94.2105455 C157.490857,98.9625455 159.578857,102.994545 166.922857,105.154545 C171.674857,106.594545 174.050857,107.242545 174.050857,109.258545 C174.050857,111.274545 172.466857,112.282545 168.578857,112.282545 C165.266857,112.282545 161.810857,111.418545 159.002857,110.410545 L157.850857,118.546545 C160.010857,119.482545 164.042857,120.490545 168.938857,120.490545 C178.946857,120.490545 183.338857,115.522545 183.338857,108.970545 Z" id="Path"></path>
                    <path d="M219.692,83.1945455 C215.876,83.1945455 212.852,83.9865455 209.972,85.5705455 C209.684,84.9225455 209.396,84.4905455 208.964,84.1305455 L202.556,84.1305455 L202.556,135.178545 L212.132,135.178545 L212.132,119.698545 C213.86,120.274545 215.444,120.490545 217.676,120.490545 C229.412,120.490545 236.684,112.930545 236.684,101.410545 C236.612,90.6825455 229.988,83.1945455 219.692,83.1945455 Z M218.036,91.9065455 C223.652,91.9065455 226.964,95.7225455 226.964,101.842545 C226.964,108.250545 223.364,111.778545 217.532,111.778545 C215.732,111.778545 213.788,111.346545 212.204,110.626545 L212.204,93.5625455 C214.076,92.4105455 215.948,91.9065455 218.036,91.9065455 Z" id="Shape"></path>
                    <path d="M277.424571,101.842545 C277.424571,90.7545455 270.296571,83.1945455 258.992571,83.1945455 C247.760571,83.1945455 240.560571,90.7545455 240.560571,101.842545 C240.560571,112.930545 247.760571,120.490545 258.992571,120.490545 C270.296571,120.490545 277.424571,112.930545 277.424571,101.842545 Z M267.776571,101.842545 C267.776571,108.466545 263.888571,111.778545 259.064571,111.778545 C254.240571,111.778545 250.352571,108.466545 250.352571,101.842545 C250.352571,95.2185455 254.240571,91.9065455 259.064571,91.9065455 C263.888571,91.9065455 267.776571,95.2185455 267.776571,101.842545 Z" id="Shape"></path>
                    <path d="M286.717143,80.2425455 C290.101143,80.2425455 292.837143,77.5065455 292.837143,74.0505455 C292.837143,70.5945455 290.101143,67.9305455 286.717143,67.9305455 C283.261143,67.9305455 280.525143,70.5945455 280.525143,74.0505455 C280.525143,77.5065455 283.261143,80.2425455 286.717143,80.2425455 Z M281.893143,84.1305455 L281.893143,119.554545 L291.469143,119.554545 L291.469143,84.1305455 L281.893143,84.1305455 Z" id="Shape"></path>
                    <path d="M318.033714,83.1945455 C314.217714,83.1945455 310.473714,84.0585455 307.089714,85.7865455 C306.801714,85.0665455 306.441714,84.4905455 305.937714,84.1305455 L299.529714,84.1305455 L299.529714,119.554545 L309.105714,119.554545 L309.105714,93.9945455 C311.265714,92.6985455 313.857714,91.9785455 316.161714,91.9785455 C320.193714,91.9785455 322.281714,93.8505455 322.281714,99.3945455 L322.281714,119.554545 L331.929714,119.554545 L331.929714,97.0905455 C331.929714,88.3065455 327.177714,83.1945455 318.033714,83.1945455 Z" id="Path"></path>
                    <path d="M357.558286,111.202545 C356.262286,111.490545 355.038286,111.706545 354.174286,111.706545 C351.150286,111.706545 349.926286,110.194545 349.926286,106.810545 L349.926286,92.1225455 L357.342286,92.1225455 L357.342286,84.1305455 L349.926286,84.1305455 L349.926286,75.1305455 L340.350286,75.1305455 L340.350286,84.1305455 L335.526286,84.1305455 L335.526286,92.1225455 L340.350286,92.1225455 L340.350286,109.114545 C340.350286,116.458545 343.878286,120.490545 351.438286,120.490545 C354.894286,120.490545 357.270286,119.842545 358.638286,119.266545 L357.558286,111.202545 Z" id="Path"></path>
                    <path d="M387.138857,108.970545 C387.138857,103.138545 383.898857,100.114545 377.490857,98.3145455 C372.090857,96.8745455 370.650857,95.9385455 370.650857,94.2105455 C370.650857,92.4105455 372.450857,91.3305455 376.626857,91.3305455 C379.290857,91.3305455 381.738857,91.8345455 383.754857,92.5545455 L385.194857,84.6345455 C382.962857,83.7705455 380.010857,83.1945455 376.050857,83.1945455 C366.618857,83.1945455 361.290857,87.5145455 361.290857,94.2105455 C361.290857,98.9625455 363.378857,102.994545 370.722857,105.154545 C375.474857,106.594545 377.850857,107.242545 377.850857,109.258545 C377.850857,111.274545 376.266857,112.282545 372.378857,112.282545 C369.066857,112.282545 365.610857,111.418545 362.802857,110.410545 L361.650857,118.546545 C363.810857,119.482545 367.842857,120.490545 372.738857,120.490545 C382.746857,120.490545 387.138857,115.522545 387.138857,108.970545 Z" id="Path"></path>
                </g>
            </g>
        </g>
    </g>
</svg>