<?xml version="1.0" encoding="UTF-8"?>
<svg width="46px" height="41px" viewBox="0 0 46 41" version="1.1" xmlns="http://www.w3.org/2000/svg" xmlns:xlink="http://www.w3.org/1999/xlink">
    <title>icon/plain/hotel</title>
    <defs>
        <path d="M36.593,24.752 L42.12,24.752 L42.12,19.225 L36.593,19.225 L36.593,24.752 Z M36.593,34.44 L42.12,34.44 L42.12,28.91 L36.593,28.91 L36.593,34.44 Z M32.431,24.747 L26.902,24.747 L26.902,19.23 L31.414,19.23 L31.414,19.225 L32.431,19.225 L32.431,24.747 Z M32.431,34.44 L26.902,34.444 L26.902,28.91 L32.431,28.91 L32.431,34.44 Z M7.632,24.747 L13.051,24.747 L13.051,19.23 L7.632,19.23 L7.632,24.747 Z M7.632,34.436 L13.051,34.436 L13.051,28.91 L7.632,28.91 L7.632,34.436 Z M7.632,15.063 L13.051,15.063 L13.051,9.599 L7.632,9.599 L7.632,15.063 Z M17.26,15.063 L22.741,15.063 L22.741,9.599 L17.26,9.599 L17.26,15.063 Z M17.26,24.747 L22.741,24.747 L22.741,19.23 L17.26,19.23 L17.26,24.747 Z M46.283,36.996 L46.283,16.509 C46.283,15.677 45.61,15.002 44.779,15.002 L26.902,15.002 L26.902,7.082 C27.724,7.082 28.256,6.424 28.256,5.602 C28.256,4.774 27.713,4.104 26.889,4.104 L22.744,4.101 L22.744,3.604 C22.744,2.759 22.042,2.064 21.203,2.064 L17.214,2.064 L17.214,1.542 C17.214,0.751 16.527,2.55795385e-13 15.672,2.55795385e-13 L14.595,2.55795385e-13 C13.723,2.55795385e-13 13.051,0.751 13.051,1.54 L13.051,2.064 L9.119,2.064 C8.254,2.064 7.58,2.763 7.58,3.606 L7.58,4.101 L3.354,4.104 C2.529,4.104 2.002,4.774 2.002,5.602 C2.002,6.382 2.529,7.082 3.363,7.082 L3.363,36.996 C2.537,36.996 2,37.639 2,38.468 C2,39.294 2.533,39.97 3.363,39.97 L17.213,39.97 L17.214,39.97 L17.214,39.845 L17.259,39.845 L17.259,28.91 L22.741,28.91 L22.741,39.97 L22.744,39.97 L26.902,39.97 L46.276,39.97 L46.282,39.97 C47.113,39.97 47.634,39.294 47.634,38.468 C47.634,37.631 47.113,36.996 46.283,36.996 L46.283,36.996 Z" id="path-1"></path>
    </defs>
    <g id="Priority-card---swa-blue,-centered-icons" stroke="none" stroke-width="1" fill="none" fill-rule="evenodd">
        <g id="HOME---DESKTOP-Copy" transform="translate(-478.000000, -1548.000000)">
            <g id="TRAVEL-EXCLUSIVE" transform="translate(150.000000, 1429.000000)">
                <g id="Group" transform="translate(326.000000, 119.500000)">
                    <mask id="mask-2" fill="white">
                        <use xlink:href="#path-1"></use>
                    </mask>
                    <use id="hotel" fill="#304CB2" xlink:href="#path-1"></use>
                </g>
            </g>
        </g>
    </g>
</svg>