<?xml version="1.0" encoding="UTF-8"?>
<svg width="51px" height="51px" viewBox="0 0 51 51" version="1.1" xmlns="http://www.w3.org/2000/svg" xmlns:xlink="http://www.w3.org/1999/xlink">
    <title>icon_companion_pass</title>
    <defs>
        <circle id="path-1" cx="25.5" cy="25.5" r="25.5"></circle>
        <path d="M5.25519974,11.6695416 C6.83096732,13.267429 9.9067349,14.8717694 9.9067349,14.8717694 L9.93841547,14.855193 C10.25061,14.6909236 12.8005117,13.3282681 14.4755695,11.776266 C14.4755695,11.776266 15.5288874,12.1033886 15.988445,12.2706729 C18.8839551,13.3329528 19.5,15.2614375 19.5,15.9995731 C19.5,16.7362195 19.3831297,17.4113133 19.3831297,17.4113133 C19.3831297,17.4113133 16.5118851,20 9.93248597,20 C4.00968967,20 0.796475735,17.9031638 0.213060911,17.4837965 L0.150849259,17.4381528 C0.143075647,17.4323127 0.136598951,17.4273838 0.131418295,17.4234076 L0.115879828,17.4113133 C0.115879828,17.4113133 1.0125234e-13,16.7362195 1.0125234e-13,15.9995731 C1.0125234e-13,15.2614375 0.61455926,13.3329528 3.51502146,12.2706729 C4.07213602,12.067152 5.25519974,11.6695416 5.25519974,11.6695416 Z M9.92788049,0 C12.8783592,0 15.2737042,2.48146595 15.2737042,5.89366777 C15.2737042,9.30636599 12.8783592,12.3581869 9.92788049,12.3581869 C6.97542093,12.3581869 4.58156157,9.30636599 4.58156157,5.89366777 C4.58156157,2.48146595 6.97542093,0 9.92788049,0 Z" id="path-3"></path>
        <path d="M5.25519974,11.6695416 C6.83096732,13.267429 9.9067349,14.8717694 9.9067349,14.8717694 L9.93841547,14.855193 C10.25061,14.6909236 12.8005117,13.3282681 14.4755695,11.776266 C14.4755695,11.776266 15.5288874,12.1033886 15.988445,12.2706729 C18.8839551,13.3329528 19.5,15.2614375 19.5,15.9995731 C19.5,16.7362195 19.3831297,17.4113133 19.3831297,17.4113133 C19.3831297,17.4113133 16.5118851,20 9.93248597,20 C4.00968967,20 0.796475735,17.9031638 0.213060911,17.4837965 L0.150849259,17.4381528 C0.143075647,17.4323127 0.136598951,17.4273838 0.131418295,17.4234076 L0.115879828,17.4113133 C0.115879828,17.4113133 1.0125234e-13,16.7362195 1.0125234e-13,15.9995731 C1.0125234e-13,15.2614375 0.61455926,13.3329528 3.51502146,12.2706729 C4.07213602,12.067152 5.25519974,11.6695416 5.25519974,11.6695416 Z M9.92788049,0 C12.8783592,0 15.2737042,2.48146595 15.2737042,5.89366777 C15.2737042,9.30636599 12.8783592,12.3581869 9.92788049,12.3581869 C6.97542093,12.3581869 4.58156157,9.30636599 4.58156157,5.89366777 C4.58156157,2.48146595 6.97542093,0 9.92788049,0 Z" id="path-5"></path>
    </defs>
    <g id="Page-1" stroke="none" stroke-width="1" fill="none" fill-rule="evenodd">
        <g id="Desktop" transform="translate(-883.000000, -661.000000)">
            <g id="Enjoy-exclusive-travel-benefits" transform="translate(219.000000, 567.000000)">
                <g id="icon_companion_pass" transform="translate(664.000000, 94.000000)">
                    <g id="bubble_bg">
                        <mask id="mask-2" fill="white">
                            <use xlink:href="#path-1"></use>
                        </mask>
                        <use id="Oval" fill="#5E7E95" xlink:href="#path-1"></use>
                        <g id="colors/SWA_blue" mask="url(#mask-2)" fill="#294299" fill-rule="nonzero">
                            <g transform="translate(0.000000, -1.000000)" id="Rectangle-5">
                                <rect x="0" y="0" width="51" height="52"></rect>
                            </g>
                        </g>
                    </g>
                    <g id="icon/plain/person" transform="translate(5.000000, 15.000000)">
                        <mask id="mask-4" fill="white">
                            <use xlink:href="#path-3"></use>
                        </mask>
                        <use id="icon/person" fill="#FFFFFF" xlink:href="#path-3"></use>
                    </g>
                    <g id="icon/plain/person" transform="translate(27.000000, 15.000000)">
                        <mask id="mask-6" fill="white">
                            <use xlink:href="#path-5"></use>
                        </mask>
                        <use id="icon/person" fill="#FFFFFF" xlink:href="#path-5"></use>
                    </g>
                </g>
            </g>
        </g>
    </g>
</svg>