<?xml version="1.0" encoding="UTF-8"?>
<svg width="63px" height="35px" viewBox="0 0 63 35" version="1.1" xmlns="http://www.w3.org/2000/svg" xmlns:xlink="http://www.w3.org/1999/xlink">
    <title>icon/car</title>
    <defs>
        <path d="M15.6768,17.82588 C15.0648,18.35388 14.5452,19.05708 14.2716,19.96908 L14.2716,19.96908 L7.3608,19.96908 C7.3452,19.98348 4.7064,25.04988 4.7064,25.04988 L4.7064,25.04988 L14.0652,25.04988 L14.0652,30.14748 L14.0652,30.14748 L12.7988047,30.1479455 C12.7149658,30.1479694 12.6314023,30.1479918 12.5482087,30.1480126 L10.0631101,30.1480166 C9.99950984,30.1479931 9.93732085,30.1479672 9.87663779,30.1479388 L8.96743125,30.1471425 C8.92822734,30.1470816 8.89109736,30.1470177 8.85613597,30.1469508 L8.60259141,30.1462659 C8.58149355,30.1461804 8.56284829,30.1460916 8.54675028,30.1459996 L8.4732,30.14508 L8.472,32.55228 L14.0652,32.55108 L14.0652,37.62348 L3.0804,37.62348 L3.0804,40.53588 C3.0804,41.00028 2.712,41.37228 2.2452,41.37228 L2.2452,41.37228 L-0.3648,41.37228 C-0.8256,41.37228 -1.2,41.00028 -1.2,40.53588 L-1.2,40.53588 L-1.2,28.57788 C-1.2,26.43468 0.5496,25.50828 1.6188,25.24068 L1.6188,25.24068 L2.1108,24.88668 L1.2288,24.88668 C0.6588,24.88668 0.426,24.41508 0.426,23.84628 C0.426,23.27388 0.6588,22.80468 1.2288,22.80468 L1.2288,22.80468 L3.2616,22.80468 L4.9044,19.92348 C5.064,19.49508 5.31,19.10268 5.64,18.77748 C6.222,18.19668 7.0884,17.82588 8.2824,17.82588 L8.2824,17.82588 Z M46.61724,7.2 C48.35724,7.2 49.60644,7.7412 50.45364,8.5812 C50.93484,9.0552 51.28644,9.6228 51.52164,10.242 L51.52164,10.242 L53.90844,14.4252 L56.85684,14.4252 C57.68364,14.4252 58.02444,15.108 58.02444,15.9408 C58.02444,16.7664 57.68364,17.4492 56.85684,17.4492 L56.85684,17.4492 L55.57524,17.4492 L56.28924,17.958 C57.84324,18.3516 60.38124,19.6944 60.38124,22.8048 L60.38124,22.8048 L60.38124,40.158 C60.38124,40.8276 59.84004,41.3712 59.16684,41.3712 L59.16684,41.3712 L55.38324,41.3712 C54.71724,41.3712 54.17244,40.8276 54.17244,40.158 L54.17244,40.158 L54.17244,35.9364 L23.82204,35.9364 L23.82204,40.158 C23.82204,40.8276 23.27844,41.3712 22.60404,41.3712 L22.60404,41.3712 L18.81924,41.3712 C18.15084,41.3712 17.60844,40.8276 17.60844,40.158 L17.60844,40.158 L17.60844,22.8048 C17.60844,19.6944 20.14644,18.3516 21.70524,17.958 L21.70524,17.958 L22.41324,17.4492 L21.12924,17.4492 C20.30244,17.4492 19.96644,16.7664 19.96644,15.9408 C19.96644,15.108 20.30244,14.4252 21.12924,14.4252 L21.12924,14.4252 L24.08004,14.4252 L26.47044,10.242 C26.70204,9.6228 27.05724,9.0552 27.53604,8.5812 C28.38324,7.7412 29.63604,7.2 31.36884,7.2 L31.36884,7.2 Z M3.636,27.89628 C2.352,27.89628 1.3116,28.94028 1.3116,30.22428 C1.3116,31.50948 2.352,32.55108 3.636,32.55108 C4.9248,32.55108 5.9688,31.50948 5.9688,30.22428 C5.9688,28.94028 4.9248,27.89628 3.636,27.89628 Z M31.657606,25.0817139 L31.64604,25.0812 L31.64364,28.5756 L46.34964,28.566 L46.34244,25.0812 L46.34244,25.0812 L45.2699841,25.081928 C45.2035894,25.0819718 45.1345598,25.082017 45.063024,25.0820636 L43.8181352,25.0828444 C43.7247598,25.0829007 43.6295227,25.0829577 43.5325526,25.0830151 L41.9641444,25.0838944 C41.8530674,25.083953 41.7409018,25.0840114 41.6277766,25.0840694 L39.875035,25.0848931 C39.7555353,25.0849437 39.6357204,25.0849932 39.5157191,25.0850415 L32.9025751,25.0851254 C32.8315801,25.0850588 32.7631051,25.084988 32.697279,25.0849128 L32.179844,25.0841137 C32.1310712,25.0840109 32.0853339,25.0839033 32.0427609,25.0837908 L31.8263271,25.0830551 C31.7087277,25.0825235 31.6458826,25.0819082 31.64604,25.0812 Z M24.62844,21.8184 C22.76124,21.8184 21.25164,23.3328 21.25164,25.1952 C21.25164,27.0588 22.76124,28.5684 24.62844,28.5684 C26.49324,28.5684 28.00764,27.0588 28.00764,25.1952 C28.00764,23.3328 26.49324,21.8184 24.62844,21.8184 Z M53.36124,21.8184 C51.49764,21.8184 49.98204,23.3328 49.98204,25.1952 C49.98204,27.0588 51.49764,28.5684 53.36124,28.5684 C55.22604,28.5684 56.74164,27.0588 56.74164,25.1952 C56.74164,23.3328 55.22604,21.8184 53.36124,21.8184 Z M47.91804,10.3068 L30.03084,10.3068 C30.00804,10.332 26.18244,17.6844 26.18244,17.6844 L26.18244,17.6844 L51.81324,17.6844 L51.81324,17.6844 L51.7896858,17.6402059 C51.650576,17.3791772 50.9153767,15.9993534 50.122376,14.5057524 L49.85664,14.00505 C48.87984,12.1638 47.90604,10.3194 47.91804,10.3068 L47.91804,10.3068 Z" id="path-1"></path>
    </defs>
    <g id="Priority-card---swa-blue,-centered-icons" stroke="none" stroke-width="1" fill="none" fill-rule="evenodd">
        <g id="opt-1--M" transform="translate(-50.000000, -1899.000000)">
            <g id="EXCLUSIVE-TRAVEL" transform="translate(12.000000, 1748.000000)">
                <g id="icon/car" transform="translate(40.000000, 144.000000)">
                    <mask id="mask-2" fill="white">
                        <use xlink:href="#path-1"></use>
                    </mask>
                    <use id="Combined-Shape" fill="#0D4BA0" xlink:href="#path-1"></use>
                    <g id="Group" mask="url(#mask-2)" fill="#304CB2" fill-rule="nonzero">
                        <g id="colors/SWA_blue">
                            <rect id="Rectangle" x="0" y="0" width="60" height="48"></rect>
                        </g>
                    </g>
                </g>
            </g>
        </g>
    </g>
</svg>