<?xml version="1.0" encoding="UTF-8"?>
<svg width="41px" height="45px" viewBox="0 0 41 45" version="1.1" xmlns="http://www.w3.org/2000/svg" xmlns:xlink="http://www.w3.org/1999/xlink">
    <title>icon/drinks</title>
    <defs>
        <path d="M39.4244102,14.5344 L38.1800102,23.1012 L33.3584102,23.1012 L34.7708102,14.5344 L39.4244102,14.5344 Z M30.5096102,14.5344 L29.1020102,23.1012 L16.6940102,23.1012 L15.4496102,14.5344 L30.5096102,14.5344 Z M49.6568102,4.1472 L49.6568102,0 L35.5520102,0 C34.0664102,0 32.8712102,0.7992 32.6072102,2.3244 L31.4156102,9.2076 C31.4156102,9.2076 13.1492102,9.21 11.7140102,9.2076 C10.2824102,9.1992 9.43041018,10.1664 9.62841018,11.55 C9.83121018,12.9192 13.8296102,40.2564 14.0000102,41.6568 C14.1740102,43.0644 15.2996102,44.1948 16.7852102,44.1948 L37.9448102,44.1948 C39.4784102,44.1888 40.6316102,43.3368 40.8524102,41.778 C41.0804102,40.224 44.9696102,13.3848 45.2228102,11.7036 C45.4748102,10.0212 44.8076102,9.2076 43.1696102,9.2076 L35.6732102,9.2076 L36.1892102,6.1776 C36.4400102,4.7112 36.8708102,4.1712 38.6288102,4.1472 C39.9584102,4.128 49.6568102,4.1472 49.6568102,4.1472 L49.6568102,4.1472 Z" id="path-1"></path>
    </defs>
    <g id="Priority-card---swa-blue,-centered-icons" stroke="none" stroke-width="1" fill="none" fill-rule="evenodd">
        <g id="OPTION-1" transform="translate(-1143.000000, -1820.000000)">
            <g id="TRAVEL-EXCLUSIVE" transform="translate(150.000000, 1665.000000)">
                <g id="25%" transform="translate(916.065757, 116.000000)">
                    <g id="icon/drinks" transform="translate(68.000000, 39.000000)">
                        <mask id="mask-2" fill="white">
                            <use xlink:href="#path-1"></use>
                        </mask>
                        <use fill="#304CB2" xlink:href="#path-1"></use>
                        <g id="Group" mask="url(#mask-2)" fill="#304CB2" fill-rule="nonzero">
                            <g id="colors/SWA_blue">
                                <rect id="Rectangle" x="0" y="0" width="60" height="60"></rect>
                            </g>
                        </g>
                    </g>
                </g>
            </g>
        </g>
    </g>
</svg>