<?xml version="1.0" encoding="UTF-8"?>
<svg width="56px" height="37px" viewBox="0 0 56 37" version="1.1" xmlns="http://www.w3.org/2000/svg" xmlns:xlink="http://www.w3.org/1999/xlink">
    <title>icon/earlybird</title>
    <defs>
        <path d="M55.4242655,37.1548897 L55.4242655,41.7548252 L0.4246,41.7548252 L0.4246,37.1548897 L55.4242655,37.1548897 Z M27.8964496,17.6277954 C36.1475701,17.6277954 42.843453,24.3214486 42.843453,32.572569 L42.843453,32.572569 L12.9539058,32.572569 C12.9539058,24.3214486 19.6430995,17.6277954 27.8964496,17.6277954 Z M9.03069365,27.4721703 C8.5914366,29.0976444 8.35619995,30.8100779 8.35619995,32.5726805 L8.35619995,32.5726805 L2.97697335,32.5726805 C1.56666834,32.5726805 0.425045946,31.4310581 0.425045946,30.0240977 C0.425045946,28.6126778 1.56666834,27.4721703 2.97697335,27.4721703 L2.97697335,27.4721703 Z M52.869328,27.4721703 C54.2774033,27.4721703 55.4246,28.6171373 55.4246,30.0240977 C55.4246,31.4344027 54.2774033,32.5726805 52.869328,32.5726805 L52.869328,32.5726805 L47.4321284,32.5726805 C47.4321284,30.8100779 47.1968917,29.0976444 46.7620941,27.4721703 L46.7620941,27.4721703 Z M43.416048,12.740113 C44.411623,11.7423083 46.0315227,11.7423083 47.0192936,12.740113 C48.0182132,13.7345732 48.0182132,15.3477837 47.0192936,16.3433587 L47.0192936,16.3433587 L43.0815883,20.2821789 C42.0035132,18.9588335 40.7593232,17.7793056 39.3858088,16.7692374 L39.3858088,16.7692374 Z M8.80526782,12.7404475 C9.79415363,11.7426428 11.4051344,11.7426428 12.4085135,12.7404475 L12.4085135,12.7404475 L16.4242595,16.7539637 C15.042941,17.764032 13.7998658,18.9435598 12.7184461,20.2680201 L12.7184461,20.2680201 L8.80526782,16.3425783 C7.80634823,15.3481182 7.80634823,13.7326779 8.80526782,12.7404475 Z M27.8964496,5.04977 C29.3067547,5.04977 30.4439176,6.19139239 30.4439176,7.60058253 L30.4439176,7.60058253 L30.4439176,13.1994377 C29.6122278,13.0935254 28.756011,13.0355524 27.8964496,13.0355524 C27.0357734,13.0355524 26.1784417,13.0935254 25.346752,13.1994377 L25.346752,13.1994377 L25.346752,7.60058253 C25.346752,6.19139239 26.4839149,5.04977 27.8964496,5.04977 Z" id="path-1"></path>
    </defs>
    <g id="Priority-card---swa-blue,-centered-icons" stroke="none" stroke-width="1" fill="none" fill-rule="evenodd">
        <g id="OPT-1---M" transform="translate(-54.000000, -2109.000000)">
            <g id="icon/plain/plane" transform="translate(54.000000, 2104.000000)">
                <mask id="mask-2" fill="white">
                    <use xlink:href="#path-1"></use>
                </mask>
                <use id="Combined-Shape" fill="#FFFFFF" xlink:href="#path-1"></use>
                <g id="Group" mask="url(#mask-2)" fill="#304CB2" fill-rule="nonzero">
                    <g id="colors/SWA_blue">
                        <rect id="Rectangle" x="0" y="0" width="55" height="44"></rect>
                    </g>
                </g>
            </g>
        </g>
    </g>
</svg>