<?xml version="1.0" encoding="UTF-8"?>
<svg width="38px" height="38px" viewBox="0 0 38 38" version="1.1" xmlns="http://www.w3.org/2000/svg" xmlns:xlink="http://www.w3.org/1999/xlink">
    <title>icon/plain/plane</title>
    <defs>
        <path d="M42.0329038,0.000543179332 C42.2090204,0.00477984602 42.846,0.040302057 43.134,0.330016343 C43.475,0.663016343 43.4630519,1.47301634 43.4630519,1.47301634 C43.429,2.35201634 43.423,4.98501634 39.872,8.53301634 L39.872,8.53301634 L34.005,14.399 L38.928,33.3541163 C39.1314375,34.2559913 38.6510859,34.842339 38.5597603,34.9467164 L38.547,34.9611163 L36.044,37.4621163 L27.192,21.211 L27.189,21.2150163 L25.036,23.3670163 C23.839,24.5660163 22.138,25.9180163 20.557,27.0300163 L20.557,27.0300163 L21.342,32.6870163 C21.336,32.6870163 21.336,32.6940163 21.336,32.6940163 C21.494,33.8150163 20.851,34.4570163 20.851,34.4570163 L20.851,34.4570163 L18.355,36.9540163 L15.388,30.3420163 C13.789,31.1400163 12.658,30.9730163 12.649,30.9770163 L12.649,30.9770163 C12.608,30.9680163 12.569,30.9530163 12.543,30.9230163 C12.51,30.8920163 12.496,30.8550163 12.496,30.8180163 L12.496,30.8180163 L12.488,30.8160163 C12.496,30.8090163 12.323,29.6780163 13.124,28.0750163 L13.124,28.0750163 L6.512,25.1070163 L9.006,22.6100163 C9.006,22.6100163 9.651,21.9710163 10.772,22.1270163 L10.772,22.1270163 L16.437,22.9070163 C17.549,21.3250163 18.902,19.6230163 20.093,18.4270163 L20.093,18.4270163 L22.249,16.2750163 L6,7.42001634 L8.507,4.91901634 C8.544,4.87801634 9.148,4.32001634 10.114,4.53501634 L10.114,4.53501634 L29.022,9.50001634 L34.936,3.59001634 C38.482,0.0420163427 41.113,0.0360163427 41.991,0 L41.991,0 Z" id="path-1"></path>
    </defs>
    <g id="Priority-card---swa-blue,-centered-icons" stroke="none" stroke-width="1" fill="none" fill-rule="evenodd">
        <g id="HOME---DESKTOP-Copy" transform="translate(-259.000000, -1551.000000)">
            <g id="TRAVEL-EXCLUSIVE" transform="translate(150.000000, 1429.000000)">
                <g id="Group" transform="translate(103.000000, 122.000000)">
                    <mask id="mask-2" fill="white">
                        <use xlink:href="#path-1"></use>
                    </mask>
                    <use id="icon/plane" fill="#304CB2" xlink:href="#path-1"></use>
                </g>
            </g>
        </g>
    </g>
</svg>