<?xml version="1.0" encoding="UTF-8"?>
<svg width="40px" height="32px" viewBox="0 0 40 32" version="1.1" xmlns="http://www.w3.org/2000/svg" xmlns:xlink="http://www.w3.org/1999/xlink">
    <title>icon/points_transfer_silver</title>
    <defs>
        <path d="M26.9906,22.6461 C29.2646,25.2081 30.7616,26.9321 34.1636,26.9321 L34.1636,26.9321 L37.0966,26.9371 L37.0966,22.8371 L44.1926,29.2131 L37.0966,35.5901 L37.0966,31.2051 L34.1636,31.2161 C30.0716,31.2161 27.4656,29.5321 24.5986,26.4531 C24.7246,26.2691 26.9906,22.6461 26.9906,22.6461 Z M37.097,3.9994 L44.192,10.3794 L37.097,16.7544 L37.097,12.3664 L34.164,12.3844 C30.464,12.3844 28.456,14.2554 26.496,17.3944 L26.496,17.3944 L22.241,24.2014 C19.473,28.6264 16.019,31.2234 10.939,31.2234 L10.939,31.2234 L7.135,31.2234 C5.949,31.2184 4.996,30.2534 4.99998745,29.0714 C5.007,27.8884 5.97,26.9324 7.153,26.9364 L7.153,26.9364 L10.939,26.9404 C14.64,26.9404 16.648,25.0684 18.607,21.9314 L18.607,21.9314 L22.866,15.1214 C25.632,10.6974 29.084,8.1024 34.164,8.1024 L34.164,8.1024 L37.097,8.1024 L37.097,3.9994 Z M10.9397,8.09446188 C15.0367,8.09446188 17.6397,9.7755 20.5067,12.8525 C20.3797,13.0395 18.1127,16.6555 18.1127,16.6555 C15.8647,14.1235 14.3437,12.3745 10.9397,12.3745 L10.9397,12.3745 L7.1347,12.3795 C5.9487,12.3745 4.9957,11.4095 4.99968745,10.2285 C5.0077,9.0455 5.9697,8.0875 7.1537,8.09446188 L7.1537,8.09446188 Z" id="path-1"></path>
    </defs>
    <g id="Biz-cards-LP" stroke="none" stroke-width="1" fill="none" fill-rule="evenodd">
        <g id="Desktop-Biz-Open-" transform="translate(-700.000000, -2679.000000)">
            <g id="travel-benefits" transform="translate(222.000000, 2403.000000)">
                <g id="Group-6" transform="translate(389.000000, 240.000000)">
                    <g id="icon/nofx-copy-4" transform="translate(84.000000, 32.000000)">
                        <mask id="mask-2" fill="white">
                            <use xlink:href="#path-1"></use>
                        </mask>
                        <use id="Combined-Shape" fill="#0D4BA0" xlink:href="#path-1"></use>
                        <g id="Group" mask="url(#mask-2)" fill="#5E7E95" fill-rule="nonzero">
                            <g id="colors/SWA_blue">
                                <rect id="Rectangle-4" x="0" y="0" width="50" height="40"></rect>
                            </g>
                        </g>
                    </g>
                </g>
            </g>
        </g>
    </g>
</svg>