<?xml version="1.0" encoding="utf-8"?>
<!-- Generator: Adobe Illustrator 24.2.1, SVG Export Plug-In . SVG Version: 6.00 Build 0)  -->
<svg version="1.1" id="Layer_1" xmlns="http://www.w3.org/2000/svg" xmlns:xlink="http://www.w3.org/1999/xlink" x="0px" y="0px"
	 viewBox="0 0 20 20" style="enable-background:new 0 0 20 20;" xml:space="preserve">
<style type="text/css">
	.st0{fill:#FFFFFF;stroke:#5F2D15;stroke-width:0.8;stroke-miterlimit:10;}
	.st1{clip-path:url(#SVGID_2_);fill:url(#SVGID_3_);stroke:#5F2D15;stroke-width:0.8;stroke-miterlimit:10;}
	.st2{clip-path:url(#SVGID_5_);fill:none;stroke:#5F2D15;stroke-width:0.72;stroke-miterlimit:10;}
	.st3{fill:#CC6805;}
</style>
<polygon class="st0" points="19.1,8 13,7.1 10.2,1.6 7.5,7.1 1.4,8 5.8,12.4 4.7,18.5 10.2,15.6 15.7,18.5 14.6,12.4 "/>
<g>
	<g>
		<g>
			<g>
				<defs>
					<rect id="SVGID_1_" x="-0.3" y="6.2" width="8" height="13"/>
				</defs>
				<clipPath id="SVGID_2_">
					<use xlink:href="#SVGID_1_"  style="overflow:visible;"/>
				</clipPath>
				
					<radialGradient id="SVGID_3_" cx="-24.0222" cy="46.6594" r="106.8365" gradientTransform="matrix(0.276 0 0 -0.276 16.8417 22.828)" gradientUnits="userSpaceOnUse">
					<stop  offset="0" style="stop-color:#FDDB00"/>
					<stop  offset="0.5657" style="stop-color:#F48028"/>
				</radialGradient>
				<polygon class="st1" points="19.1,8 13,7.1 10.2,1.5 7.5,7.1 1.4,8 5.8,12.3 4.7,18.4 10.2,15.5 15.7,18.4 14.6,12.3 				"/>
			</g>
		</g>
	</g>
	<g>
		<g>
			<g>
				<defs>
					<rect id="SVGID_4_" x="-0.3" y="6.2" width="8" height="13"/>
				</defs>
				<clipPath id="SVGID_5_">
					<use xlink:href="#SVGID_4_"  style="overflow:visible;"/>
				</clipPath>
				<polygon class="st2" points="2.2,8.2 7.7,7.4 10.2,2.4 12.7,7.4 18.2,8.2 14.2,12.1 15.1,17.6 10.2,15 5.3,17.6 6.2,12.1 				
					"/>
			</g>
		</g>
	</g>
</g>
<polygon class="st3" points="7.7,15.9 6.6,16.5 6.6,7.9 7.7,7.8 "/>
</svg>
