<?xml version="1.0" encoding="utf-8"?>
<!-- Generator: Adobe Illustrator 15.0.0, SVG Export Plug-In . SVG Version: 6.00 Build 0)  -->
<!DOCTYPE svg PUBLIC "-//W3C//DTD SVG 1.1//EN" "http://www.w3.org/Graphics/SVG/1.1/DTD/svg11.dtd">
<svg version="1.1" id="Layer_2" xmlns="http://www.w3.org/2000/svg" xmlns:xlink="http://www.w3.org/1999/xlink" x="0px" y="0px"
	 width="91.898px" height="24.31px" viewBox="0 0 91.898 24.31" enable-background="new 0 0 91.898 24.31" xml:space="preserve">
<g>
	<g>
		<g>
			<path fill="#CCCCCC" d="M86.265,3.329c-0.746,0-1.348,0.261-1.828,0.534c-0.481-0.273-1.082-0.534-1.829-0.534
				c-1.492,0-2.479,0.976-2.479,2.642c0,2.033,1.941,4.019,4.308,5.613c2.366-1.595,4.307-3.581,4.307-5.613
				C88.744,4.304,87.758,3.329,86.265,3.329z"/>
			<linearGradient id="SVGID_1_" gradientUnits="userSpaceOnUse" x1="80.3735" y1="8.3687" x2="86.061" y2="8.3687">
				<stop  offset="0" style="stop-color:#3656CC"/>
				<stop  offset="0.35" style="stop-color:#304CB2"/>
				<stop  offset="0.72" style="stop-color:#283B80"/>
			</linearGradient>
			<path fill="url(#SVGID_1_)" d="M80.374,6.006c0,2.079,2.191,4.012,4.063,5.292c0.539-0.369,1.096-0.792,1.625-1.257
				c-2.479-2.077-4.806-3.935-5.642-4.601C80.39,5.618,80.374,5.808,80.374,6.006z"/>
			<linearGradient id="SVGID_2_" gradientUnits="userSpaceOnUse" x1="81.1812" y1="3.8755" x2="87.6072" y2="8.375">
				<stop  offset="0.3" style="stop-color:#E61C23"/>
				<stop  offset="0.8" style="stop-color:#C3161C"/>
			</linearGradient>
			<path fill="url(#SVGID_2_)" d="M88.334,6.97c-1.798-1.482-2.886-2.237-4.052-2.937c-0.315-0.19-0.946-0.467-1.653-0.467
				c-0.679,0-1.247,0.211-1.64,0.622c-0.256,0.267-0.429,0.602-0.527,1.009c0.931,0.65,3.457,2.457,6.003,4.473
				C87.315,8.86,88.027,7.94,88.334,6.97z"/>
			<linearGradient id="SVGID_3_" gradientUnits="userSpaceOnUse" x1="85.1655" y1="3.2949" x2="88.8389" y2="5.8671">
				<stop  offset="0" style="stop-color:#FDBC11"/>
				<stop  offset="0.25" style="stop-color:#FCB415"/>
				<stop  offset="0.8" style="stop-color:#F89E1C"/>
			</linearGradient>
			<path fill="url(#SVGID_3_)" d="M87.879,4.189c-0.386-0.402-0.952-0.619-1.604-0.619c-0.699,0-1.231,0.227-1.603,0.428
				c0.696,0.388,2.211,1.266,3.779,2.421c0.025-0.156,0.038-0.313,0.038-0.47C88.49,5.216,88.276,4.603,87.879,4.189z"/>
		</g>
	</g>
	<g>
		<path fill="#304CB2" d="M21.315,3.318c-2.269-0.002-4.1,1.591-4.103,4.109c-0.002,2.518,1.82,4.144,4.095,4.146
			c2.273,0.002,4.099-1.615,4.101-4.139C25.411,4.911,23.582,3.32,21.315,3.318z M21.31,9.4c-0.976-0.001-1.757-0.702-1.755-1.971
			c0.001-1.269,0.758-1.937,1.759-1.937c0.999,0.001,1.74,0.662,1.739,1.94C23.051,8.712,22.284,9.401,21.31,9.4z M16.72,8.219
			c-0.001,1.848-1.428,3.356-4.178,3.354C11.213,11.572,10.109,11.278,9,10.84l0.47-2.22c1.016,0.467,1.988,0.758,3.044,0.759
			c1.15,0.001,1.708-0.363,1.709-1.048c0-0.565-0.427-0.775-1.894-1.226c-0.499-0.146-0.949-0.303-1.34-0.46
			C9.659,6.107,9.042,5.18,9.043,3.815c0.002-1.843,1.492-3.285,4.195-3.283c1.158,0.001,2.112,0.241,3.117,0.615l-0.471,2.2
			c-0.872-0.328-1.729-0.577-2.694-0.578c-1.174-0.001-1.678,0.311-1.679,0.99c0,0.575,0.403,0.782,1.712,1.151
			c0.497,0.137,0.961,0.287,1.377,0.446C15.869,5.843,16.721,6.707,16.72,8.219z M30.847,3.557h2.288v7.498
			c-1.277,0.326-2.365,0.511-3.535,0.51c-2.412-0.002-3.596-0.94-3.595-3.054l0.004-4.954h2.291v4.729
			c0,0.772,0.215,1.182,1.408,1.183c0.427,0,0.8-0.056,1.14-0.119V3.557z M46.995,6.378l-0.004,5.031h-2.295l0.004-4.788
			c0-0.815-0.246-1.151-1.119-1.152c-0.552,0-1.019,0.153-1.423,0.308l-0.005,5.632h-2.295l0-11.409h2.302v3.698
			c0.499-0.173,1.203-0.344,1.94-0.343C46.084,3.356,46.997,4.332,46.995,6.378z M56.757,11.409h-2.069l-1.487-4.448l-1.571,4.448
			h-2.058l-2.462-7.853h2.384L50.777,8l1.554-4.443h1.918l1.451,4.5l1.403-4.5h2.438L56.757,11.409z M73.319,9.008
			c-0.001,1.444-1.003,2.583-3.237,2.582c-1.005,0-1.91-0.15-2.875-0.425l0.349-1.925c0.779,0.307,1.535,0.439,2.344,0.439
			c0.657,0.001,1.147-0.161,1.148-0.517c0-0.374-0.403-0.472-1.231-0.71c-0.398-0.125-0.751-0.254-1.05-0.382
			c-1.06-0.448-1.571-1.113-1.57-2.167c0.002-1.483,1.146-2.57,3.271-2.568c0.905,0.001,1.705,0.156,2.513,0.333l-0.356,1.938
			C71.89,5.393,71.207,5.24,70.464,5.24c-0.69,0-0.995,0.228-0.995,0.569c-0.001,0.324,0.304,0.456,1.09,0.663
			c0.391,0.113,0.75,0.228,1.069,0.339C72.894,7.255,73.32,8.019,73.319,9.008z M66.743,7.131c0.001-2.113-1.17-3.803-3.541-3.805
			s-4.016,1.65-4.019,4.253c-0.002,2.428,1.465,4,4.058,4.001c1.158,0.001,2.104-0.293,3.075-0.706L65.979,9.02
			c-0.732,0.33-1.489,0.586-2.373,0.585c-1.337-0.001-1.887-0.587-1.974-1.398l5.037,0.004C66.669,8.211,66.742,7.309,66.743,7.131z
			 M61.665,6.497c0.143-0.688,0.501-1.316,1.444-1.315c0.971,0.001,1.263,0.762,1.288,1.318L61.665,6.497z M78.983,11.267
			c-0.609,0.174-1.172,0.306-1.854,0.306c-2.231-0.002-2.655-1.515-2.654-2.87l0.003-3.184l-1.09-0.001V3.557l1.09,0V1.499h2.294
			v2.058h2.096v1.966l-2.096-0.002l-0.003,3.037c0,0.615,0.107,0.999,0.923,1c0.338,0,0.632-0.064,0.962-0.159L78.983,11.267z
			 M39.338,11.267c-0.61,0.174-1.172,0.306-1.854,0.306c-2.231-0.002-2.655-1.515-2.654-2.87l0.003-3.184l-1.09-0.001V3.557l1.09,0
			V1.499h2.294v2.058h2.096v1.966l-2.096-0.002l-0.003,3.037c0,0.615,0.107,0.999,0.923,1c0.338,0,0.632-0.064,0.962-0.159
			L39.338,11.267z"/>
		<g>
			<g>
				<path fill="#304CB2" d="M79.237,2.45c-0.546,0-0.989-0.445-0.989-0.994c0.001-0.548,0.445-0.992,0.991-0.991
					c0.548,0,0.992,0.445,0.991,0.993C80.229,2.006,79.785,2.451,79.237,2.45z M79.239,0.641c-0.461,0-0.805,0.334-0.805,0.816
					c0,0.484,0.343,0.817,0.803,0.817c0.463,0,0.804-0.332,0.805-0.816C80.042,0.977,79.702,0.641,79.239,0.641z M79.487,2.022
					L79.24,1.639c-0.053-0.085-0.082-0.109-0.159-0.109L79.08,2.021h-0.212l0.001-1.152l0.391,0c0.253,0,0.386,0.144,0.386,0.333
					c0,0.173-0.115,0.274-0.285,0.3c0.043,0.032,0.082,0.083,0.136,0.163l0.236,0.356H79.487z M79.227,1.04h-0.146v0.335h0.112
					c0.119,0,0.229-0.026,0.229-0.167C79.421,1.106,79.371,1.04,79.227,1.04z"/>
			</g>
		</g>
	</g>
	<path fill="#304CB2" d="M61.367,22.052c-1.906,0-2.962-1.508-2.962-3.134s1.093-3.098,2.979-3.098c0.768,0,1.265,0.172,1.707,0.461
		l-0.397,0.604c-0.343-0.234-0.768-0.388-1.327-0.388c-1.391,0-2.104,1.138-2.104,2.401c0,1.283,0.687,2.466,2.122,2.466
		c0.65,0,1.111-0.217,1.454-0.506l0.361,0.578C62.893,21.727,62.215,22.052,61.367,22.052z M66.224,21.944
		c-0.036-0.117-0.063-0.379-0.072-0.515c-0.198,0.253-0.641,0.623-1.282,0.623c-0.731,0-1.255-0.461-1.255-1.183
		c0-1.147,1.246-1.5,2.32-1.5h0.181v-0.379c0-0.515-0.181-0.849-0.84-0.849c-0.604,0-0.966,0.334-1.129,0.46l-0.379-0.515
		c0.226-0.198,0.704-0.596,1.571-0.596c1.002,0,1.535,0.451,1.535,1.472v1.933c0,0.47,0.055,0.822,0.108,1.048H66.224z
		 M66.116,19.903h-0.181c-0.885,0-1.525,0.244-1.525,0.939c0,0.424,0.352,0.577,0.613,0.577c0.605,0,0.948-0.396,1.093-0.577V19.903
		z M70.198,18.295c-0.055-0.027-0.163-0.072-0.397-0.072c-0.623,0-0.976,0.695-1.048,0.84v2.881h-0.759V17.6h0.759v0.659
		c0.181-0.298,0.551-0.768,1.147-0.768c0.279,0,0.424,0.063,0.487,0.09L70.198,18.295z M74.468,17.6v0.568h-0.642
		c0.182,0.253,0.28,0.569,0.28,0.912c0,0.913-0.677,1.59-1.77,1.59c-0.172,0-0.335-0.018-0.488-0.055
		c-0.099,0.055-0.262,0.154-0.262,0.344c0,0.234,0.271,0.316,0.668,0.334c0.939,0.055,2.222-0.009,2.222,1.327
		c0,0.903-1.002,1.464-2.186,1.464c-1.021,0-1.778-0.353-1.778-1.201c0-0.488,0.298-0.867,0.74-1.111
		c-0.234-0.117-0.389-0.315-0.389-0.641c0-0.316,0.208-0.569,0.461-0.705c-0.487-0.279-0.776-0.768-0.776-1.346
		c0-0.921,0.687-1.589,1.778-1.589c0.262,0,0.497,0.036,0.695,0.108H74.468z M71.262,22.784c0,0.397,0.316,0.723,1.065,0.723
		c0.831,0,1.373-0.334,1.373-0.84c0-0.642-0.569-0.642-1.102-0.678c-0.271-0.018-0.542-0.027-0.795-0.063
		C71.443,22.142,71.262,22.431,71.262,22.784z M73.331,19.081c0-0.587-0.37-1.002-1.003-1.002c-0.632,0-1.002,0.415-1.002,1.002
		s0.37,1.003,1.002,1.003C72.96,20.083,73.331,19.667,73.331,19.081z M76.906,22.052c-1.472,0-2.041-1.237-2.041-2.275
		c0-1.03,0.542-2.285,2.023-2.285c1.472,0,2.095,1.228,2.095,2.267C78.983,20.788,78.387,22.052,76.906,22.052z M76.879,18.124
		c-0.867,0-1.201,0.723-1.201,1.635s0.379,1.661,1.246,1.661c0.857,0,1.246-0.73,1.246-1.643
		C78.17,18.874,77.737,18.124,76.879,18.124z"/>
</g>
</svg>
