<svg id="Layer_1" data-name="Layer 1" xmlns="http://www.w3.org/2000/svg" viewBox="0 0 627.91 173.71"><defs><linearGradient id="linear-gradient" x1="561.99" y1="65.89" x2="606.78" y2="65.89" gradientUnits="userSpaceOnUse"><stop offset="0" stop-color="#3656cc"/><stop offset=".35" stop-color="#304cb2"/><stop offset=".72" stop-color="#283b80"/></linearGradient><linearGradient id="linear-gradient-2" x1="568.36" y1="30.51" x2="618.95" y2="65.94" gradientUnits="userSpaceOnUse"><stop offset=".3" stop-color="#e61c23"/><stop offset=".8" stop-color="#c3161c"/></linearGradient><linearGradient id="linear-gradient-3" x1="599.72" y1="25.94" x2="628.65" y2="46.19" gradientUnits="userSpaceOnUse"><stop offset="0" stop-color="#fdbc11"/><stop offset=".25" stop-color="#fcb415"/><stop offset=".8" stop-color="#f89e1c"/></linearGradient><style>.cls-5{fill:#304cb2}</style></defs><path d="M608.39 26.21a28.64 28.64 0 00-14.4 4.2 28.66 28.66 0 00-14.39-4.2c-11.76 0-19.52 7.68-19.52 20.8 0 16 15.28 31.64 33.91 44.2C612.62 78.65 627.91 63 627.91 47c0-13.11-7.77-20.79-19.52-20.79z" fill="#ccc"/><path d="M562 47.29c0 16.37 17.26 31.59 32 41.66a134.09 134.09 0 0012.79-9.89c-19.52-16.36-37.84-31-44.42-36.23a27.66 27.66 0 00-.37 4.46z" fill="url(#linear-gradient)"/><path d="M624.68 54.88c-14.15-11.67-22.68-17.61-31.9-23.12a26.62 26.62 0 00-13-3.68c-5.34 0-9.82 1.66-12.91 4.89a17 17 0 00-4.16 8C570 46 589.92 60.27 610 76.14c6.65-6.38 12.26-13.62 14.68-21.26z" fill="url(#linear-gradient-2)"/><path d="M621.1 33c-3-3.17-7.5-4.87-12.63-4.87a25.93 25.93 0 00-12.63 3.37 288.7 288.7 0 0129.77 19.06 24.18 24.18 0 00.29-3.7c0-5.79-1.68-10.62-4.8-13.86z" fill="url(#linear-gradient-3)"/><path class="cls-5" d="M97 26.12c-17.87 0-32.29 12.53-32.3 32.36S79 91.11 96.91 91.12s32.28-12.71 32.29-32.59S114.82 26.14 97 26.12zm0 47.89c-7.75-.01-13.9-5.52-13.9-15.52s6-15.25 13.85-15.24 13.7 5.2 13.7 15.27S104.6 74 96.93 74zm-36.14-9.3c0 14.55-11.25 26.43-32.9 26.41C17.43 91.11 8.73 88.8 0 85.35l3.7-17.48c8 3.68 15.66 6 24 6 9 0 13.45-2.86 13.45-8.25 0-4.45-3.36-6.1-14.91-9.65-3.93-1.16-7.48-2.39-10.55-3.63C5.19 48.09.33 40.79.34 30c0-14.51 11.75-25.87 33-25.85C42.49 4.2 50 6.09 57.91 9L54.2 26.36c-6.86-2.58-13.61-4.54-21.2-4.55-9.24 0-13.21 2.45-13.21 7.8 0 4.53 3.17 6.15 13.48 9.06 3.91 1.08 7.57 2.26 10.84 3.52C54.09 46 60.8 52.81 60.79 64.71zM172 28h18v59c-10.05 2.57-18.62 4-27.83 4-19 0-28.32-7.4-28.3-24V28h18v37.24c0 6.08 1.7 9.31 11.09 9.32a47.61 47.61 0 009-.94zm127.17 22.22v39.62h-18.11v-37.7c0-6.42-1.93-9.07-8.81-9.07a30.42 30.42 0 00-11.21 2.42v44.35H243V0h18.12v29.12a47.94 47.94 0 0115.28-2.71c15.6.01 22.79 7.7 22.77 23.81zM376 89.84h-16.25L348 54.81l-12.38 35h-16.2L300.07 28h18.78L329 63l12.24-35h15.1l11.43 35.44 11-35.44H398zm130.45-18.92c0 11.38-7.9 20.35-25.49 20.33a80.36 80.36 0 01-22.64-3.34l2.74-15.16a49.21 49.21 0 0018.46 3.46c5.18 0 9-1.27 9-4.07s-3.17-3.71-9.69-5.59c-3.14-1-5.91-2-8.27-3-8.34-3.53-12.37-8.76-12.36-17.06 0-11.68 9-20.24 25.75-20.22 7.13 0 13.42 1.23 19.78 2.62L501 44.14a59.72 59.72 0 00-17-2.88c-5.43 0-7.83 1.79-7.84 4.48s2.4 3.59 8.59 5.22c3.08.89 5.9 1.79 8.42 2.66 9.93 3.51 13.29 9.52 13.28 17.3zm-51.79-14.77c0-16.64-9.21-29.94-27.88-30s-31.62 13-31.63 33.49c0 19.12 11.53 31.49 32 31.51 9.12 0 16.56-2.31 24.21-5.56L448.65 71c-5.76 2.6-11.72 4.62-18.68 4.61-10.52 0-14.86-4.62-15.54-11h39.66s.57-7.06.57-8.46zm-40-5c1.13-5.41 3.95-10.36 11.37-10.35 7.65 0 9.95 6 10.15 10.37zm136.39 37.57a50.79 50.79 0 01-14.61 2.4c-17.57 0-20.9-11.92-20.89-22.59V43.46H507V28h8.59V11.8h18.06V28h16.51v15.49h-16.51V67.4c0 4.85.84 7.87 7.27 7.88a26.31 26.31 0 007.53-1.28zm-312.17 0a50.78 50.78 0 01-14.6 2.4c-17.57 0-20.91-11.92-20.9-22.59V43.46h-8.58V28h8.58V11.8h18.06V28H238v15.49h-16.5V67.4c0 4.85.85 7.87 7.27 7.88a26.26 26.26 0 007.51-1.28zM553.05 19.29a7.82 7.82 0 117.82-7.81 7.81 7.81 0 01-7.82 7.81zm0-14.25a6.16 6.16 0 00-6.33 6.43 6.33 6.33 0 1012.65 0A6.16 6.16 0 00553.06 5zm2 10.88l-1.95-3c-.42-.67-.64-.86-1.25-.86v3.88h-1.67v-9.1h3.08c2 0 3 1.13 3 2.62a2.33 2.33 0 01-2.26 2.37 5 5 0 011.06 1.28l1.94 2.81zm-2-7.73h-1.15v2.64h.88c.94 0 1.8-.21 1.8-1.32-.08-.8-.48-1.32-1.58-1.32zM332.74 172.78h-13V125.3H333c8.84 0 15.76 3.21 15.76 11.84 0 5.7-3.28 9.19-8.49 10.55v.14c5.78 1 10.55 5.06 10.55 11.62-.05 9.7-7.39 13.33-18.08 13.33zm-.29-42.27h-6.27v15h6.13c6.84 0 9.84-2.5 9.84-7.84 0-4.95-3.35-7.16-9.7-7.16zm.57 20.1h-6.84v17h6.41c7.85 0 11.48-2.42 11.48-8.13 0-5.48-2.92-8.87-11.07-8.87zM364 138.49v23.17c0 4.14 1.42 6.63 5.84 6.63 4.85 0 8.56-4.92 9.27-5.92v-23.88h6.06V165a39.23 39.23 0 00.71 7.77h-6.06a38 38 0 01-.57-5 13.86 13.86 0 01-11.12 5.85c-7.34 0-10.19-4.78-10.19-10.84v-24.29zM402.52 173.71a19.57 19.57 0 01-11.12-3.28l2.49-4.49a15 15 0 008.49 2.78c4.13 0 6.7-1.64 6.7-4.56s-2.78-4.21-7.77-6.42c-5.28-2.28-9.13-4.78-9.13-10.48 0-5.49 4.28-9.62 11.27-9.62a17.16 17.16 0 0110.33 3.13l-2.71 4.35a12.56 12.56 0 00-7.55-2.49c-3.64 0-5.56 1.64-5.56 4.35 0 3.06 2.85 4.2 6.7 5.84 5.49 2.28 10.34 4.78 10.34 10.55 0 6.42-4.78 10.34-12.48 10.34zM424.9 132.43a4.21 4.21 0 01-4.21-4.2 4.21 4.21 0 018.42 0 4.21 4.21 0 01-4.21 4.2zm-3.06 40.35v-34.29H428v34.29zM458.69 172.78v-23.17c0-4.13-1.43-6.7-5.77-6.7-5 0-8.7 4.92-9.41 5.92v23.95h-6v-34.29h6v4.78a14.18 14.18 0 0111.12-5.63c7.27 0 10.12 4.77 10.12 10.76v24.38zM487.41 168.65a17 17 0 009.41-2.92l2.36 4.42a20.78 20.78 0 01-12 3.49c-11 0-16.61-7.91-16.61-18.25s6.56-17.75 15.75-17.75c9.49 0 14.62 7.2 13.62 18.32H477c.22 6.98 3.07 12.69 10.41 12.69zm6.59-17.33c-.14-4.63-2.21-8.76-7.84-8.76-5.13 0-8.05 3.63-8.91 8.76zM514.93 173.71a19.52 19.52 0 01-11.12-3.28l2.49-4.49a14.93 14.93 0 008.48 2.78c4.14 0 6.71-1.64 6.71-4.56s-2.78-4.21-7.77-6.42c-5.28-2.28-9.13-4.78-9.13-10.48 0-5.49 4.28-9.62 11.26-9.62a17.18 17.18 0 0110.34 3.13l-2.71 4.35a12.59 12.59 0 00-7.55-2.49c-3.64 0-5.57 1.64-5.57 4.35 0 3.06 2.86 4.2 6.71 5.84 5.49 2.28 10.33 4.78 10.33 10.55 0 6.42-4.77 10.34-12.47 10.34zM542 173.71a19.57 19.57 0 01-11.12-3.28l2.5-4.49a14.93 14.93 0 008.48 2.78c4.14 0 6.7-1.64 6.7-4.56s-2.78-4.21-7.77-6.42c-5.27-2.28-9.12-4.78-9.12-10.48 0-5.49 4.27-9.62 11.26-9.62a17.2 17.2 0 0110.34 3.13l-2.71 4.35a12.59 12.59 0 00-7.56-2.49c-3.63 0-5.56 1.64-5.56 4.35 0 3.06 2.85 4.2 6.7 5.84 5.49 2.28 10.34 4.78 10.34 10.55.01 6.42-4.77 10.34-12.48 10.34z"/></svg>