<?xml version="1.0" encoding="UTF-8"?>
<svg width="42px" height="34px" viewBox="0 0 42 34" version="1.1" xmlns="http://www.w3.org/2000/svg" xmlns:xlink="http://www.w3.org/1999/xlink">
    <!-- Generator: Sketch 52.6 (67491) - http://www.bohemiancoding.com/sketch -->
    <title>icon/unlimited</title>
    <desc>Created with Sketch.</desc>
    <defs>
        <path d="M15.3434,17.9187 C15.3434,18.3667 15.3794,18.8057 15.4344,19.2397 C12.1984,18.6707 9.7034,15.1777 9.7034,11.3017 C9.7034,7.0627 12.6834,3.9807 16.3574,3.9807 C19.2914,3.9807 21.7804,5.9487 22.6654,8.8987 C18.4774,9.5037 15.3434,13.2427 15.3434,17.9187 Z M16.129,22.3426 C15.97,22.3976 15.82,22.4506 15.699,22.4956 C12.015,23.8406 10.519,26.3076 10.083,28.1176 C6.112,27.1706 4.142,25.6056 4.142,25.6056 C4.142,25.6056 4,24.7676 4,23.8516 C4,22.9356 4.763,20.5406 8.375,19.2216 C9.068,18.9696 10.541,18.4746 10.541,18.4746 C12.234,20.1876 15.316,21.9046 16.129,22.3426 Z M30.6775,25.0786 C33.9355,26.2696 34.6305,28.4336 34.6305,29.2636 C34.6305,30.0906 34.4995,30.8486 34.4995,30.8486 C34.4995,30.8486 31.2655,33.7546 23.8635,33.7546 C16.4605,33.7546 12.8185,30.8486 12.8185,30.8486 C12.8185,30.8486 12.6855,30.0906 12.6855,29.2636 C12.6855,28.4336 13.3785,26.2696 16.6425,25.0786 C17.2695,24.8486 18.5995,24.4026 18.5995,24.4026 C20.3745,26.1956 23.8335,27.9976 23.8335,27.9976 C23.8335,27.9976 26.9645,26.3816 28.9765,24.5216 C28.9765,24.5216 30.1615,24.8906 30.6775,25.0786 Z M32.366,17.768 C32.294,12.789 28.672,8.904 24.025,8.812 C24.022,8.705 24.012,8.6 24.012,8.493 C24.012,3.576 27.469,0 31.732,0 C35.996,0 39.455,3.576 39.455,8.493 C39.455,13.164 36.333,17.359 32.366,17.768 Z M40.4861,17.6821 C44.6701,19.2141 45.5601,21.9931 45.5601,23.0571 C45.5601,24.1181 45.3901,25.0911 45.3901,25.0911 C45.3901,25.0911 42.8671,27.3421 37.2801,28.3461 C36.9191,26.5211 35.4611,23.9001 31.6221,22.4951 C31.5501,22.4701 31.4671,22.4411 31.3771,22.4101 C31.5311,22.0781 31.6691,21.7371 31.7901,21.3861 C32.3591,21.0851 35.9311,19.1611 38.3021,16.9701 C38.3021,16.9701 39.8241,17.4421 40.4861,17.6821 Z M23.8588,25.1744 C20.5348,25.1744 17.8438,21.7504 17.8438,17.9184 C17.8438,14.0884 20.5348,11.3034 23.8588,11.3034 C27.1798,11.3034 29.8728,14.0884 29.8728,17.9184 C29.8728,21.7504 27.1798,25.1744 23.8588,25.1744 Z" id="path-1"></path>
    </defs>
    <g id="Priority-card---swa-blue,-centered-icons" stroke="none" stroke-width="1" fill="none" fill-rule="evenodd">
        <g id="Desktop-HD" transform="translate(-407.000000, -1233.000000)">
            <g id="flying-benefits" transform="translate(2.000000, 1132.000000)">
                <g id="icon/unlimited" transform="translate(401.000000, 101.000000)">
                    <mask id="mask-2" fill="white">
                        <use xlink:href="#path-1"></use>
                    </mask>
                    <use fill="#304CB2" fill-rule="evenodd" xlink:href="#path-1"></use>
                    <g id="colors/SWA_blue" mask="url(#mask-2)" fill="#304CB2" fill-rule="nonzero">
                        <rect id="Rectangle" x="0" y="0" width="50" height="50"></rect>
                    </g>
                </g>
            </g>
        </g>
    </g>
</svg>