<svg width="44" height="24" viewBox="0 0 44 24" fill="none" xmlns="http://www.w3.org/2000/svg">
<path d="M2.62053 2.37H0.540527V1.13H6.20053V2.37H4.10053V8.54H2.62053V2.37Z" fill="#121212"/>
<path d="M7.40053 1.13H9.98053C10.3672 1.13 10.7305 1.16667 11.0705 1.24C11.4105 1.31333 11.7039 1.44 11.9505 1.62C12.2039 1.79333 12.4005 2.02333 12.5405 2.31C12.6872 2.59667 12.7605 2.95333 12.7605 3.38C12.7605 3.94 12.6305 4.39333 12.3705 4.74C12.1172 5.08667 11.7772 5.34333 11.3505 5.51L13.0805 8.54H11.4305L9.91053 5.74H8.88053V8.54H7.40053V1.13ZM9.84053 4.57C10.3205 4.57 10.6872 4.47333 10.9405 4.28C11.1939 4.08 11.3205 3.78 11.3205 3.38C11.3205 2.98 11.1939 2.70333 10.9405 2.55C10.6872 2.39 10.3205 2.31 9.84053 2.31H8.88053V4.57H9.84053Z" fill="#121212"/>
<path d="M15.3497 5.83L13.1297 1.13H14.6997L15.4397 2.94C15.5464 3.22 15.6497 3.49333 15.7497 3.76C15.8564 4.02 15.9664 4.29333 16.0797 4.58H16.1197C16.2331 4.29333 16.3431 4.02 16.4497 3.76C16.5631 3.49333 16.6731 3.22 16.7797 2.94L17.5197 1.13H19.0597L16.8297 5.83V8.54H15.3497V5.83Z" fill="#121212"/>
<path d="M25.1159 8.68C24.6293 8.68 24.1826 8.59333 23.7759 8.42C23.3693 8.24 23.0193 7.98333 22.7259 7.65C22.4326 7.31 22.2059 6.90333 22.0459 6.43C21.8859 5.95 21.8059 5.41 21.8059 4.81C21.8059 4.21 21.8859 3.67333 22.0459 3.2C22.2059 2.72667 22.4326 2.32667 22.7259 2C23.0193 1.67333 23.3693 1.42667 23.7759 1.26C24.1826 1.08667 24.6293 1 25.1159 1C25.6093 1 26.0559 1.08667 26.4559 1.26C26.8626 1.43333 27.2126 1.68333 27.5059 2.01C27.7993 2.33 28.0259 2.72667 28.1859 3.2C28.3459 3.67333 28.4259 4.21 28.4259 4.81C28.4259 5.41 28.3459 5.95 28.1859 6.43C28.0259 6.90333 27.7993 7.31 27.5059 7.65C27.2126 7.98333 26.8626 8.24 26.4559 8.42C26.0559 8.59333 25.6093 8.68 25.1159 8.68ZM25.1159 7.4C25.3893 7.4 25.6359 7.34 25.8559 7.22C26.0826 7.09333 26.2726 6.92 26.4259 6.7C26.5859 6.47333 26.7059 6.2 26.7859 5.88C26.8726 5.56 26.9159 5.20333 26.9159 4.81C26.9159 4.01 26.7526 3.38667 26.4259 2.94C26.1059 2.49333 25.6693 2.27 25.1159 2.27C24.5626 2.27 24.1226 2.49333 23.7959 2.94C23.4759 3.38667 23.3159 4.01 23.3159 4.81C23.3159 5.20333 23.3559 5.56 23.4359 5.88C23.5226 6.2 23.6426 6.47333 23.7959 6.7C23.9559 6.92 24.1459 7.09333 24.3659 7.22C24.5926 7.34 24.8426 7.4 25.1159 7.4Z" fill="#121212"/>
<path d="M29.8712 1.13H31.9012C32.4679 1.13 32.9746 1.20667 33.4212 1.36C33.8746 1.50667 34.2579 1.73333 34.5712 2.04C34.8912 2.34 35.1346 2.72 35.3012 3.18C35.4746 3.64 35.5612 4.18333 35.5612 4.81C35.5612 5.43 35.4746 5.97333 35.3012 6.44C35.1346 6.90667 34.8946 7.29667 34.5812 7.61C34.2746 7.91667 33.9012 8.15 33.4612 8.31C33.0212 8.46333 32.5279 8.54 31.9812 8.54H29.8712V1.13ZM31.8112 7.35C32.1579 7.35 32.4679 7.30333 32.7412 7.21C33.0212 7.11 33.2579 6.96 33.4512 6.76C33.6446 6.55333 33.7912 6.29 33.8912 5.97C33.9979 5.64333 34.0512 5.25667 34.0512 4.81C34.0512 4.35667 33.9979 3.97333 33.8912 3.66C33.7912 3.34 33.6446 3.08333 33.4512 2.89C33.2579 2.69 33.0212 2.54667 32.7412 2.46C32.4679 2.36667 32.1579 2.32 31.8112 2.32H31.3512V7.35H31.8112Z" fill="#121212"/>
<path d="M37.0099 1.13H38.4899V4.35H38.5199L40.9699 1.13H42.5999L40.3399 4.05L42.9999 8.54H41.3799L39.4599 5.21L38.4899 6.46V8.54H37.0099V1.13Z" fill="#121212"/>
<path d="M43 22.6802H16.031C12.6969 22.6802 10 19.9971 10 16.6802C10 13.3632 12.6969 10.6802 16.031 10.6802H43V22.6802Z" fill="#121212"/>
<path d="M42.5 22.1802H16.031C12.9706 22.1802 10.5 19.7186 10.5 16.6802C10.5 13.6418 12.9706 11.1802 16.031 11.1802H42.5V22.1802Z" stroke="#FAFAFA" stroke-opacity="0.2"/>
<path d="M20.6432 17.2108C20.8959 17.5351 21.0297 17.9037 21.0297 18.3312C21.0297 18.9356 20.8216 19.4221 20.3905 19.7759C19.9594 20.1297 19.3648 20.3066 18.6067 20.3066H15.2026V13.0683H18.4878C19.231 13.0683 19.8107 13.2304 20.227 13.5695C20.6432 13.9086 20.8513 14.3656 20.8513 14.9405C20.8513 15.368 20.7324 15.7218 20.5094 16.0019C20.2864 16.282 19.9891 16.4737 19.6026 16.5916C20.0189 16.6801 20.3607 16.8865 20.6283 17.2108H20.6432ZM16.9864 15.9872H18.1459C18.4432 15.9872 18.6661 15.9282 18.8148 15.7956C18.9783 15.6629 19.0526 15.486 19.0526 15.2354C19.0526 14.9847 18.9783 14.7931 18.8148 14.6604C18.6661 14.5277 18.4432 14.4688 18.1459 14.4688H16.9864V15.9872ZM18.9932 18.6702C19.1567 18.5376 19.231 18.3459 19.231 18.0806C19.231 17.8152 19.1418 17.6236 18.9783 17.4761C18.8148 17.3287 18.577 17.255 18.2797 17.255H16.9864V18.8472H18.2945C18.5918 18.8472 18.8297 18.7734 18.9932 18.6408V18.6702Z" fill="url(#paint0_linear_23530_173425)"/>
<path d="M24.2407 14.4689V15.9284H26.619V17.2847H24.2407V18.8768H26.9312V20.292H22.4569V13.0537H26.9312V14.4689H24.2407Z" fill="url(#paint1_linear_23530_173425)"/>
<path d="M34.0216 13.0537V14.4689H32.0892V20.3068H30.3054V14.4689H28.3729V13.0537H34.0216Z" fill="url(#paint2_linear_23530_173425)"/>
<path d="M36.3254 19.0241L35.8944 20.3066H34.0362L36.6822 13.0683H38.7484L41.3944 20.3066H39.5065L39.0754 19.0241H36.3254ZM38.5849 17.6678L37.6781 15.0142L36.7862 17.6678H38.5849Z" fill="url(#paint3_linear_23530_173425)"/>
<defs>
<linearGradient id="paint0_linear_23530_173425" x1="17.4459" y1="14.1954" x2="20.0844" y2="23.9113" gradientUnits="userSpaceOnUse">
<stop stop-color="#67FA78"/>
<stop offset="1" stop-color="#06C872"/>
</linearGradient>
<linearGradient id="paint1_linear_23530_173425" x1="17.4459" y1="14.1954" x2="20.0844" y2="23.9113" gradientUnits="userSpaceOnUse">
<stop stop-color="#67FA78"/>
<stop offset="1" stop-color="#06C872"/>
</linearGradient>
<linearGradient id="paint2_linear_23530_173425" x1="17.4459" y1="14.1954" x2="20.0844" y2="23.9113" gradientUnits="userSpaceOnUse">
<stop stop-color="#67FA78"/>
<stop offset="1" stop-color="#06C872"/>
</linearGradient>
<linearGradient id="paint3_linear_23530_173425" x1="17.4459" y1="14.1954" x2="20.0844" y2="23.9113" gradientUnits="userSpaceOnUse">
<stop stop-color="#67FA78"/>
<stop offset="1" stop-color="#06C872"/>
</linearGradient>
</defs>
</svg>
