<svg xmlns="http://www.w3.org/2000/svg" fill="none" height="250" viewBox="0 0 860 250" width="860"><filter id="a" colorInterpolationFilters="sRGB" filterUnits="userSpaceOnUse" height="61.2227" width="532.305" x="256.203" y="26.3368"><feFlood floodOpacity="0" result="BackgroundImageFix"/><feColorMatrix in="SourceAlpha" result="hardAlpha" type="matrix" values="0 0 0 0 0 0 0 0 0 0 0 0 0 0 0 0 0 0 127 0"/><feOffset dy="2.2035"/><feGaussianBlur stdDeviation="4.407"/><feComposite in2="hardAlpha" operator="out"/><feColorMatrix type="matrix" values="0 0 0 0 0.028125 0 0 0 0 0.349875 0 0 0 0 0.646875 0 0 0 0.4 0"/><feBlend in2="BackgroundImageFix" mode="normal" result="effect1_dropShadow_618_368"/><feColorMatrix in="SourceAlpha" result="hardAlpha" type="matrix" values="0 0 0 0 0 0 0 0 0 0 0 0 0 0 0 0 0 0 127 0"/><feOffset/><feGaussianBlur stdDeviation="1.65263"/><feComposite in2="hardAlpha" operator="out"/><feColorMatrix type="matrix" values="0 0 0 0 0 0 0 0 0 0.22 0 0 0 0 1 0 0 0 0.15 0"/><feBlend in2="effect1_dropShadow_618_368" mode="normal" result="effect2_dropShadow_618_368"/><feBlend in="SourceGraphic" in2="effect2_dropShadow_618_368" mode="normal" result="shape"/></filter><filter id="b" colorInterpolationFilters="sRGB" filterUnits="userSpaceOnUse" height="151.102" width="670.951" x="188.717" y="98.5819"><feFlood floodOpacity="0" result="BackgroundImageFix"/><feColorMatrix in="SourceAlpha" result="hardAlpha" type="matrix" values="0 0 0 0 0 0 0 0 0 0 0 0 0 0 0 0 0 0 127 0"/><feOffset dy="2.2035"/><feGaussianBlur stdDeviation="4.407"/><feComposite in2="hardAlpha" operator="out"/><feColorMatrix type="matrix" values="0 0 0 0 0.028125 0 0 0 0 0.349875 0 0 0 0 0.646875 0 0 0 0.4 0"/><feBlend in2="BackgroundImageFix" mode="normal" result="effect1_dropShadow_618_368"/><feColorMatrix in="SourceAlpha" result="hardAlpha" type="matrix" values="0 0 0 0 0 0 0 0 0 0 0 0 0 0 0 0 0 0 127 0"/><feOffset/><feGaussianBlur stdDeviation="1.65263"/><feComposite in2="hardAlpha" operator="out"/><feColorMatrix type="matrix" values="0 0 0 0 0 0 0 0 0 0.22 0 0 0 0 1 0 0 0 0.15 0"/><feBlend in2="effect1_dropShadow_618_368" mode="normal" result="effect2_dropShadow_618_368"/><feBlend in="SourceGraphic" in2="effect2_dropShadow_618_368" mode="normal" result="shape"/></filter><filter id="c" colorInterpolationFilters="sRGB" filterUnits="userSpaceOnUse" height="166.406" width="166.422" x="77.9003" y=".903165"><feFlood floodOpacity="0" result="BackgroundImageFix"/><feColorMatrix in="SourceAlpha" result="hardAlpha" type="matrix" values="0 0 0 0 0 0 0 0 0 0 0 0 0 0 0 0 0 0 127 0"/><feOffset dy="2.2035"/><feGaussianBlur stdDeviation="4.407"/><feComposite in2="hardAlpha" operator="out"/><feColorMatrix type="matrix" values="0 0 0 0 0.968627 0 0 0 0 0 0 0 0 0 0.176471 0 0 0 0.4 0"/><feBlend in2="BackgroundImageFix" mode="normal" result="effect1_dropShadow_618_368"/><feColorMatrix in="SourceAlpha" result="hardAlpha" type="matrix" values="0 0 0 0 0 0 0 0 0 0 0 0 0 0 0 0 0 0 127 0"/><feOffset/><feGaussianBlur stdDeviation="1.65263"/><feComposite in2="hardAlpha" operator="out"/><feColorMatrix type="matrix" values="0 0 0 0 1 0 0 0 0 0 0 0 0 0 0 0 0 0 0.15 0"/><feBlend in2="effect1_dropShadow_618_368" mode="normal" result="effect2_dropShadow_618_368"/><feBlend in="SourceGraphic" in2="effect2_dropShadow_618_368" mode="normal" result="shape"/></filter><filter id="d" colorInterpolationFilters="sRGB" filterUnits="userSpaceOnUse" height="166.377" width="166.422" x=".670365" y="78.1434"><feFlood floodOpacity="0" result="BackgroundImageFix"/><feColorMatrix in="SourceAlpha" result="hardAlpha" type="matrix" values="0 0 0 0 0 0 0 0 0 0 0 0 0 0 0 0 0 0 127 0"/><feOffset dy="2.2035"/><feGaussianBlur stdDeviation="4.407"/><feComposite in2="hardAlpha" operator="out"/><feColorMatrix type="matrix" values="0 0 0 0 0.028125 0 0 0 0 0.349875 0 0 0 0 0.646875 0 0 0 0.4 0"/><feBlend in2="BackgroundImageFix" mode="normal" result="effect1_dropShadow_618_368"/><feColorMatrix in="SourceAlpha" result="hardAlpha" type="matrix" values="0 0 0 0 0 0 0 0 0 0 0 0 0 0 0 0 0 0 127 0"/><feOffset/><feGaussianBlur stdDeviation="1.65263"/><feComposite in2="hardAlpha" operator="out"/><feColorMatrix type="matrix" values="0 0 0 0 0 0 0 0 0 0.22 0 0 0 0 1 0 0 0 0.15 0"/><feBlend in2="effect1_dropShadow_618_368" mode="normal" result="effect2_dropShadow_618_368"/><feBlend in="SourceGraphic" in2="effect2_dropShadow_618_368" mode="normal" result="shape"/></filter><filter id="e" colorInterpolationFilters="sRGB" filterUnits="userSpaceOnUse" height="27.0645" width="26.9288" x="780.002" y="28.0907"><feFlood floodOpacity="0" result="BackgroundImageFix"/><feColorMatrix in="SourceAlpha" result="hardAlpha" type="matrix" values="0 0 0 0 0 0 0 0 0 0 0 0 0 0 0 0 0 0 127 0"/><feOffset dy="2.2035"/><feGaussianBlur stdDeviation="4.407"/><feComposite in2="hardAlpha" operator="out"/><feColorMatrix type="matrix" values="0 0 0 0 0.028125 0 0 0 0 0.349875 0 0 0 0 0.646875 0 0 0 0.4 0"/><feBlend in2="BackgroundImageFix" mode="normal" result="effect1_dropShadow_618_368"/><feColorMatrix in="SourceAlpha" result="hardAlpha" type="matrix" values="0 0 0 0 0 0 0 0 0 0 0 0 0 0 0 0 0 0 127 0"/><feOffset/><feGaussianBlur stdDeviation="1.65263"/><feComposite in2="hardAlpha" operator="out"/><feColorMatrix type="matrix" values="0 0 0 0 0 0 0 0 0 0.22 0 0 0 0 1 0 0 0 0.15 0"/><feBlend in2="effect1_dropShadow_618_368" mode="normal" result="effect2_dropShadow_618_368"/><feBlend in="SourceGraphic" in2="effect2_dropShadow_618_368" mode="normal" result="shape"/></filter><g fill="#006491"><path d="m298.38 36.238c-3.553-1.7594-7.969-2.656-13.112-2.656h-20.251v42.3596h20.251c5.16 0 9.559-.8966 13.112-2.6559 3.587-1.7932 6.327-4.2969 8.138-7.4434 1.776-3.1296 2.69-6.7667 2.69-10.8098v-.5583c0-4.0092-.897-7.6294-2.69-10.7759-1.794-3.1635-4.534-5.6841-8.138-7.4773zm-22.874 6.8851h9.711c4.348 0 7.749 1.015 10.101 3.0112 2.334 1.9792 3.468 4.7705 3.468 8.5091v.2707c0 3.8062-1.117 6.5975-3.418 8.526-2.334 1.9454-5.752 2.9435-10.134 2.9435h-9.711v-23.2605z"/><path d="m375.984 35.7047c-3.553-1.827-7.935-2.7574-13.027-2.7574-5.093 0-9.458.9304-12.994 2.7574-3.587 1.8439-6.294 4.4491-8.053 7.714-1.743 3.2311-2.622 6.9697-2.622 11.1313v.3383c0 4.1446.879 7.9001 2.622 11.1312 1.759 3.265 4.466 5.8702 8.053 7.7479 3.536 1.8439 7.901 2.7744 12.994 2.7744 5.092 0 9.474-.9305 13.027-2.7744 3.604-1.8608 6.327-4.4829 8.104-7.7648 1.759-3.248 2.656-6.9866 2.656-11.0974v-.3383c0-4.1615-.897-7.9001-2.656-11.1312-1.777-3.265-4.5-5.8702-8.104-7.7141zm-13.027 31.2791c-4.162 0-7.445-1.0658-9.779-3.1634-2.335-2.0977-3.452-5.0243-3.452-8.9321v-.2707c0-3.8401 1.134-6.7497 3.469-8.8813 2.334-2.1315 5.617-3.2141 9.762-3.2141s7.528 1.0826 9.846 3.1972 3.435 5.0243 3.435 8.9152v.2706c0 3.9416-1.117 6.8851-3.401 8.9659-2.301 2.0808-5.617 3.1296-9.88 3.1296z"/><path d="m443.962 63.1187-13.501-29.5367h-11.657v42.3596h9.728v-24.1571l11.133 24.1571h8.577l11.099-24.0049v24.0049h9.711v-42.3596h-11.606z"/><path d="m513.768 33.582h-10.489v42.3596h10.489z"/><path d="m580.277 60.1075-23.212-26.5255h-9.119v42.3596h9.88v-26.3563l23.483 26.3563h8.781v-42.3596h-9.813z"/><path d="m658.914 35.7047c-3.553-1.827-7.935-2.7574-13.028-2.7574-5.092 0-9.457.9304-12.993 2.7574-3.587 1.8439-6.294 4.4491-8.053 7.714-1.743 3.2311-2.623 6.9697-2.623 11.1313v.3383c0 4.1446.88 7.9001 2.623 11.1312 1.759 3.265 4.466 5.8702 8.053 7.7479 3.536 1.8439 7.901 2.7744 12.993 2.7744 5.093 0 9.475-.9305 13.028-2.7744 3.603-1.8608 6.327-4.4829 8.104-7.7648 1.759-3.248 2.656-6.9866 2.656-11.0974v-.3383c0-4.1615-.897-7.9001-2.656-11.1312-1.777-3.265-4.501-5.8702-8.104-7.7141zm-13.028 31.2791c-4.162 0-7.444-1.0658-9.779-3.1634-2.334-2.0977-3.451-5.0243-3.451-8.9321v-.2707c0-3.8401 1.134-6.7497 3.468-8.8813 2.335-2.1315 5.617-3.2141 9.762-3.2141s7.529 1.0826 9.847 3.1972 3.434 5.0243 3.434 8.9152v.2706c0 3.9416-1.116 6.8851-3.4 8.9659-2.301 2.0808-5.617 3.1296-9.881 3.1296z"/><path d="m699.653 43.4614h2.606l-2.217 7.9171h5.617l3.672-8.6445.101-9.152h-9.779z"/><path d="m776.97 55.2943c-1.743-1.8101-3.841-3.0958-6.26-3.7893-2.25-.6598-5.177-1.2688-8.73-1.8271l-3.4-.4905c-2.115-.3215-3.739-.626-4.788-.8966-.914-.22-1.641-.5921-2.183-1.0827-.44-.3891-.643-.9643-.643-1.7593 0-2.2838 2.792-3.4341 8.273-3.4341 2.927 0 5.076.389 6.396 1.1503 1.201.6936 1.911 1.8439 2.216 3.6878l.389 1.1504h10.287l-.136-2.1484c-.558-8.5599-6.92-12.9075-18.932-12.9075-5.854 0-10.506 1.0488-13.856 3.1296-3.519 2.1991-5.295 5.3964-5.295 9.541 0 3.3326.964 5.9716 2.859 7.8325 1.81 1.7762 3.942 3.0112 6.344 3.7048 2.25.6597 5.397 1.3025 9.305 1.9285l1.709.2706c2.233.3553 3.959.6936 5.16.9981 1.066.2707 1.946.6767 2.623 1.2011.507.3891.744.9304.744 1.7086 0 2.7574-3.231 4.1615-9.593 4.1615-3.417 0-5.904-.3891-7.359-1.1334-1.286-.6598-2.014-1.7763-2.25-3.3157l-.136-1.827h-10.574l.119 2.3684c.236 4.2968 1.996 7.5956 5.227 9.8117 3.147 2.1653 8.037 3.2142 14.906 3.2142 6.141 0 11.064-1.0996 14.634-3.265 3.756-2.2837 5.668-5.684 5.668-10.1162 0-3.3157-.914-5.9547-2.724-7.8494z"/></g><g fill="#006491"><path d="m243.668 236.797-14.483-52.052h-9.119v52.052h-22.535v-129.853h31.299c12.164 0 21.013 3.13 26.562 9.389s8.324 15.885 8.324 28.894c0 8.594-1.1 15.733-3.316 21.467-2.199 5.718-5.702 10.133-10.473 13.229l17.883 56.874zm-23.619-72.268h6.971c5.008 0 8.611-1.336 10.828-4.026 2.199-2.69 3.316-7.714 3.316-15.107 0-7.392-1.1-11.825-3.316-14.396-2.217-2.571-5.82-3.84-10.828-3.84h-6.971v37.386z"/><path d="m291.97 106.944h56.525v20.216h-33.989v31.127h28.084v20.215h-28.084v38.097h35.782v20.215h-58.318z"/><path d="m490.357 106.944-24.329 129.853h-23.077l-14.482-79.779-14.855 79.779h-22.891l-24.328-129.853h24.142l12.706 90.336 14.668-90.336h22.011l14.669 90.691 12.706-90.691h23.076z"/><path d="m551.177 209.781h-23.973l-4.467 27.016h-21.638l24.87-129.853h27.543l24.87 129.853h-22.721l-4.467-27.016zm-3.4-20.215-8.595-50.801-8.594 50.801h17.172z"/><path d="m645.988 236.797-14.482-52.052h-9.119v52.052h-22.536v-129.853h31.299c12.165 0 21.013 3.13 26.562 9.389 5.55 6.259 8.324 15.885 8.324 28.894 0 8.594-1.099 15.733-3.316 21.467-2.199 5.718-5.701 10.133-10.472 13.229l17.883 56.874zm-23.618-72.268h6.97c5.008 0 8.612-1.336 10.828-4.026 2.199-2.69 3.316-7.714 3.316-15.107 0-7.392-1.1-11.825-3.316-14.396s-5.82-3.84-10.828-3.84h-6.97v37.386z"/><path d="m694.294 106.944h32.906c11.336 0 19.711 2.893 25.141 8.679 5.431 5.785 8.138 13.99 8.138 24.597v63.505c0 10.607-2.707 18.778-8.138 24.513-5.43 5.717-13.805 8.593-25.141 8.593h-32.906zm31.299 109.655c4.179 0 7.275-1.167 9.305-3.485 2.031-2.318 3.046-6.056 3.046-11.182v-60.105c0-5.126-1.015-8.848-3.046-11.182-2.03-2.318-5.126-3.485-9.305-3.485h-8.764v89.439z"/><path d="m791.605 229.92c-5.6-5.786-8.408-13.974-8.408-24.597v-8.763h22.535v8.052c0 4.889.931 8.408 2.775 10.556 1.844 2.149 4.619 3.214 8.324 3.214 7.63 0 11.454-4.55 11.454-13.634 0-4.179-.812-7.765-2.42-10.743-1.607-2.977-3.468-5.379-5.549-7.155-2.081-1.794-5.634-4.602-10.642-8.425-.829-.592-3.84-2.859-9.034-6.8-5.194-3.942-9.153-8.865-11.894-14.769s-4.111-12.62-4.111-20.148c0-9.558 2.978-17.187 8.95-22.922 5.955-5.735 13.721-8.594 23.263-8.594 10.845 0 18.932 2.859 24.244 8.594 5.312 5.718 7.969 13.889 7.969 24.512v6.091h-22.536v-5.549c0-4.771-.812-8.222-2.419-10.37-1.608-2.149-3.959-3.214-7.072-3.214s-5.668.981-7.326 2.96c-1.675 1.979-2.504 4.821-2.504 8.526s.66 6.936 1.963 9.677c1.319 2.74 2.944 5.024 4.923 6.8 1.963 1.793 4.737 3.992 8.324 6.631 1.438.965 2.504 1.726 3.214 2.335 6.074 4.534 10.642 8.205 13.688 11.013 3.045 2.808 5.718 6.8 8.053 11.994 2.318 5.193 3.485 11.672 3.485 19.437 0 10.624-3.096 18.947-9.305 24.986s-14.381 9.051-24.515 9.051c-11.336 0-19.795-2.893-25.395-8.679z"/></g><path d="m237.763 70.1726-64.917-64.92649c-2.74-2.74052-6.395-4.24611-10.252-4.24611-3.858 0-7.529 1.50559-10.253 4.24611l-145.09315 145.06089c-5.65078 5.651-5.65078 14.87 0 20.52l64.93325 64.91c2.7408 2.741 6.3783 4.246 10.2527 4.246 3.8743 0 7.5287-1.505 10.2526-4.246l145.0766-145.0612c5.65-5.6502 5.65-14.853 0-20.5201z" fill="#fff"/><g><path d="m176.061 93.5481c-3.671 3.6709-8.493 5.4979-13.298 5.4979s-9.61-1.827-13.298-5.4979c-3.654-3.6709-5.515-8.4922-5.515-13.2966 0-4.8043 1.861-9.6425 5.515-13.2966 3.688-3.6709 8.493-5.5148 13.298-5.5148s9.627 1.827 13.298 5.5148c3.671 3.6541 5.516 8.4923 5.516 13.2966 0 4.8044-1.845 9.6257-5.516 13.2966zm57.1-18.7776-64.916-64.90963c-3.13-3.1296-8.206-3.1296-11.336 0l-70.1946 70.18763 76.2516 76.2435 70.195-70.1873c3.13-3.1296 3.13-8.2046 0-11.3342z" fill="#e31837"/></g><g><path d="m96.6444 147.769c3.6716-3.671 8.4926-5.515 13.2976-5.515s9.627 1.827 13.298 5.515c3.689 3.671 5.516 8.475 5.516 13.296 0 4.822-1.844 9.626-5.516 13.28-3.671 3.654-8.493 5.498-13.298 5.515-4.805 0-9.626-1.844-13.2976-5.515-3.6714-3.671-5.5155-8.492-5.5155-13.28 0-4.787 1.8441-9.625 5.5155-13.296zm-28.5923 25.832c-3.6883 3.654-8.4931 5.481-13.298 5.481s-9.6266-1.827-13.2979-5.481c-3.6714-3.671-5.4986-8.492-5.4986-13.297 0-4.804 1.8272-9.625 5.4986-13.313 3.6713-3.671 8.493-5.498 13.2979-5.498s9.6266 1.844 13.298 5.498c3.6713 3.688 5.4985 8.492 5.4985 13.296 0 4.805-1.8272 9.643-5.4985 13.297zm-56.2203-18.693c-3.12991 3.129-3.12991 8.204 0 11.334l64.9333 64.91c1.5565 1.573 3.6206 2.351 5.6677 2.351 2.0472 0 4.1112-.778 5.6677-2.351l70.1785-70.154-76.2692-76.2441z" fill="#006491"/></g><path d="m109.638 228.208h1.015c1.032 0 1.37-.304 1.37-.913 0-.525-.27-.829-1.235-.829h-1.15zm0 3.113h-.846v-5.549h2.115c1.319 0 1.979.491 1.979 1.573 0 .999-.626 1.421-1.455 1.523l1.59 2.436h-.947l-1.472-2.419h-.947v2.419zm1.015-6.801c-2.233 0-3.942 1.726-3.942 4.01 0 2.283 1.725 4.043 3.942 4.043 2.216 0 3.925-1.692 3.925-4.043 0-2.352-1.726-4.01-3.925-4.01zm0-.778c2.622 0 4.855 2.03 4.855 4.805 0 2.774-2.233 4.821-4.855 4.821-2.623 0-4.873-2.03-4.873-4.821 0-2.792 2.234-4.805 4.873-4.805z" fill="#0069a7"/><g><path d="m793.467 44.138c-2.688 0-4.65-1.9055-4.65-4.4689v-.6465c0-2.4159 1.996-4.3214 4.65-4.3214 2.643 0 4.65 1.9396 4.65 4.3214v.6465c0 2.5634-1.939 4.4689-4.65 4.4689zm0-1.0889c2.053 0 3.527-1.4631 3.527-3.3913v-.6125c0-1.7921-1.485-3.2665-3.527-3.2665s-3.516 1.4744-3.516 3.2665v.6125c0 1.9282 1.474 3.3913 3.516 3.3913zm-.669-5.1153v1.2249h.692c.385 0 .805-.1134.805-.6238 0-.3856-.25-.6011-.726-.6011zm-.012 3.6068h-1.134v-4.4802h2.269c.952 0 1.554.6012 1.554 1.4065 0 .6692-.386 1.1796-.874 1.3497l1.055 1.724h-1.327l-.896-1.5652h-.647z" fill="#006491"/></g></svg>